<svg width="103" height="103" viewBox="0 0 103 103" fill="none" xmlns="http://www.w3.org/2000/svg">
<path d="M49.7971 68.3596C52.1104 70.1077 53.29 73.0551 53.6265 76.9" stroke="#FD7033" stroke-width="0.97722" stroke-miterlimit="1.5" stroke-linecap="round" stroke-linejoin="round"/>
<path d="M65.0861 67.0717C61.8628 61.4091 63.7916 56.958 69.0179 53.2671" stroke="#FD7033" stroke-width="0.97722" stroke-miterlimit="1.5" stroke-linecap="round" stroke-linejoin="round"/>
<path d="M54.1393 76.5101C52.8498 77.6662 51.0017 78.3713 49.1235 78.3713C46.3069 78.3713 43.8628 76.7857 42.6597 74.4711" stroke="#FD7033" stroke-width="0.97722" stroke-miterlimit="1.5" stroke-linecap="round" stroke-linejoin="round"/>
<path d="M69.9454 56.486C70.1888 57.4187 70.5197 58.2875 70.5197 59.2794C70.5197 61.2169 69.7385 62.9734 68.4741 64.2508" stroke="#FD7033" stroke-width="0.97722" stroke-miterlimit="1.5" stroke-linecap="round" stroke-linejoin="round"/>
<path d="M69.9462 56.4861L62.8762 30.1611" stroke="#FD7033" stroke-width="0.97722" stroke-miterlimit="1.5" stroke-linecap="round" stroke-linejoin="round"/>
<path d="M62.8746 30.1611L52.8821 32.7036" stroke="#FD7033" stroke-width="0.97722" stroke-miterlimit="1.5" stroke-linecap="round" stroke-linejoin="round"/>
<path d="M64.4262 35.9398L54.6431 38.4291" stroke="#FD7033" stroke-width="0.97722" stroke-miterlimit="1.5" stroke-linecap="round" stroke-linejoin="round"/>
<path d="M65.619 40.3817L55.6265 42.9243" stroke="#FD7033" stroke-width="0.97722" stroke-miterlimit="1.5" stroke-linecap="round" stroke-linejoin="round"/>
<path d="M54.1389 76.51L68.4731 64.2346" stroke="#FD7033" stroke-width="0.97722" stroke-miterlimit="1.5" stroke-linecap="round" stroke-linejoin="round"/>
<path d="M62.2573 69.8857C63.218 71.3737 63.7568 73.321 63.9544 75.6413" stroke="#FD7033" stroke-width="0.97722" stroke-miterlimit="1.5" stroke-linecap="round" stroke-linejoin="round"/>
<path d="M73.7314 67.0279C70.9813 62.0653 72.6269 58.1644 77.0858 54.9297" stroke="#FD7033" stroke-width="0.97722" stroke-miterlimit="1.5" stroke-linecap="round" stroke-linejoin="round"/>
<path d="M64.3905 75.3C63.2905 76.3132 61.7137 76.9311 60.1113 76.9311C58.505 76.9311 57.0407 76.3103 55.9397 75.2927" stroke="#FD7033" stroke-width="0.97722" stroke-miterlimit="1.5" stroke-linecap="round" stroke-linejoin="round"/>
<path d="M77.8759 57.7513C78.0835 58.5687 78.3659 59.3301 78.3659 60.1994C78.3659 61.8974 77.6993 63.4367 76.6206 64.5562" stroke="#FD7033" stroke-width="0.97722" stroke-miterlimit="1.5" stroke-linecap="round" stroke-linejoin="round"/>
<path d="M77.8741 57.7514L71.8423 34.6805" stroke="#FD7033" stroke-width="0.97722" stroke-miterlimit="1.5" stroke-linecap="round" stroke-linejoin="round"/>
<path d="M71.8424 34.6805L64.595 36.5748" stroke="#FD7033" stroke-width="0.97722" stroke-miterlimit="1.5" stroke-linecap="round" stroke-linejoin="round"/>
<path d="M73.1674 39.7446L65.9536 41.63" stroke="#FD7033" stroke-width="0.97722" stroke-miterlimit="1.5" stroke-linecap="round" stroke-linejoin="round"/>
<path d="M74.1845 43.6379L66.9966 45.5166" stroke="#FD7033" stroke-width="0.97722" stroke-miterlimit="1.5" stroke-linecap="round" stroke-linejoin="round"/>
<path d="M64.3914 75.3001L76.6207 64.5421" stroke="#FD7033" stroke-width="0.97722" stroke-miterlimit="1.5" stroke-linecap="round" stroke-linejoin="round"/>
<path d="M29.3342 65.1232C36.5879 65.1965 39.7884 69.5468 40.4095 76.6429" stroke="#1C1F63" stroke-width="1.64646" stroke-miterlimit="1.5" stroke-linecap="round" stroke-linejoin="round"/>
<path d="M53.1688 65.7004C49.5803 59.3962 51.7276 54.4407 57.5462 50.3315" stroke="#1C1F63" stroke-width="1.64646" stroke-miterlimit="1.5" stroke-linecap="round" stroke-linejoin="round"/>
<path d="M40.9804 76.2087C39.5448 77.4959 37.4874 78.2809 35.3963 78.2809C30.9361 78.2809 27.3149 74.7096 27.3149 70.3108C27.3149 67.8904 28.4113 65.7206 30.1406 64.2584" stroke="#1C1F63" stroke-width="1.64646" stroke-miterlimit="1.5" stroke-linecap="round" stroke-linejoin="round"/>
<path d="M58.5775 53.9156C58.8484 54.9541 59.2169 55.9213 59.2169 57.0256C59.2169 59.1826 58.3471 61.1381 56.9395 62.5602" stroke="#1C1F63" stroke-width="1.64646" stroke-miterlimit="1.5" stroke-linecap="round" stroke-linejoin="round"/>
<path d="M58.5767 53.9157L50.7056 24.6076" stroke="#1C1F63" stroke-width="1.64646" stroke-miterlimit="1.5" stroke-linecap="round" stroke-linejoin="round"/>
<path d="M50.7064 24.6079L33.9338 28.8757" stroke="#1C1F63" stroke-width="1.64646" stroke-miterlimit="1.5" stroke-linecap="round" stroke-linejoin="round"/>
<path d="M52.4324 31.0411L35.7988 35.2734" stroke="#1C1F63" stroke-width="1.64646" stroke-miterlimit="1.5" stroke-linecap="round" stroke-linejoin="round"/>
<path d="M53.762 35.9869L37.2097 40.1986" stroke="#1C1F63" stroke-width="1.64646" stroke-miterlimit="1.5" stroke-linecap="round" stroke-linejoin="round"/>
<path d="M33.9339 28.8754C33.9339 28.8754 41.1958 53.4165 40.9812 55.1157C40.784 56.6768 30.1414 64.2582 30.1414 64.2582" stroke="#1C1F63" stroke-width="1.64646" stroke-miterlimit="1.5" stroke-linecap="round" stroke-linejoin="round"/>
<path d="M40.9797 76.2086L56.9381 62.5422" stroke="#1C1F63" stroke-width="1.64646" stroke-miterlimit="1.5" stroke-linecap="round" stroke-linejoin="round"/>
</svg>
