<svg width="103" height="103" viewBox="0 0 103 103" fill="none" xmlns="http://www.w3.org/2000/svg">
<g clip-path="url(#clip0_168_7909)">
<path d="M68.116 28.5762L70.976 55.1365" stroke="#FD7033" stroke-width="1.18947" stroke-miterlimit="1.5" stroke-linecap="round" stroke-linejoin="round"/>
<path d="M49.5619 32.3133C59.8101 32.3133 68.1179 30.6402 68.1179 28.5763C68.1179 26.5125 59.8101 24.8394 49.5619 24.8394C39.3137 24.8394 31.0059 26.5125 31.0059 28.5763C31.0059 30.6402 39.3137 32.3133 49.5619 32.3133Z" stroke="#FD7033" stroke-width="1.18947" stroke-miterlimit="1.5" stroke-linecap="round" stroke-linejoin="round"/>
<path d="M53.3553 73.4176C52.121 73.4591 50.8533 73.4807 49.5608 73.4807C36.9248 73.4807 26.666 71.4148 26.666 68.87" stroke="#FD7033" stroke-width="1.18947" stroke-miterlimit="1.5" stroke-linecap="round" stroke-linejoin="round"/>
<path d="M26.666 68.8701L31.0048 28.5762" stroke="#FD7033" stroke-width="1.1904" stroke-miterlimit="1.5" stroke-linecap="round" stroke-linejoin="round"/>
<path d="M44.6931 28.5762H54.4261" stroke="#1C1F63" stroke-width="2.00407" stroke-miterlimit="1.5" stroke-linecap="round" stroke-linejoin="round"/>
<path d="M72.0973 59.5573C74.0672 60.3765 75.6544 62.1703 76.124 64.1231C76.4429 65.4494 76.3579 66.8927 75.7905 68.2571C74.8148 70.6035 72.6677 72.1026 70.3378 72.3353C70.2615 72.905 70.1103 73.4744 69.879 74.0307C68.476 77.4044 64.6516 79.0265 61.3438 77.651C59.5073 76.8873 58.1888 75.1054 57.6416 73.32" stroke="#1C1F63" stroke-width="1.18947" stroke-miterlimit="1.5" stroke-linecap="round" stroke-linejoin="round"/>
<path d="M63.6525 67.9502C63.3545 67.0515 63.2523 66.0802 63.365 65.1037" stroke="#1C1F63" stroke-width="0.530033" stroke-miterlimit="1.5" stroke-linecap="round" stroke-linejoin="round"/>
<path d="M63.4185 66.0732C63.1851 66.6231 63.6996 68.0865 63.7238 68.154C64.3106 69.7871 65.5382 71.163 67.255 71.877C68.2622 72.2958 69.3174 72.4367 70.3375 72.3349" stroke="#1C1F63" stroke-width="1.18947" stroke-miterlimit="1.5" stroke-linecap="round" stroke-linejoin="round"/>
<path d="M72.0963 59.5573C70.4263 58.9404 68.6445 59.0692 67.1209 59.7868C65.6791 60.4659 64.4686 61.6721 63.8031 63.2725C63.5718 63.8288 63.345 65.0128 63.3292 65.0888C62.4536 71.1046 59.3026 72.7053 57.6406 73.32C57.6097 73.3286 55.4349 74.2271 53.4871 73.3218" stroke="#1C1F63" stroke-width="2.00345" stroke-miterlimit="1.5" stroke-linecap="round" stroke-linejoin="round"/>
<path d="M59.7114 61.7128C60.1878 62.762 60.9081 63.83 61.8632 64.4791C62.5107 64.9192 63.0221 65.0618 63.3662 65.1041" stroke="#1C1F63" stroke-width="1.18947" stroke-miterlimit="1.5" stroke-linecap="round" stroke-linejoin="round"/>
<path d="M53.4869 73.3214C50.1791 71.9458 48.6326 68.0901 50.0356 64.7165C50.6115 63.3316 51.5954 62.2419 52.7842 61.5335C52.0363 59.9098 51.9463 57.9751 52.6939 56.1773C54.0969 52.8037 57.9214 51.1815 61.2291 52.5571C61.6492 52.7318 62.0409 52.9465 62.4018 53.1952C61.2052 53.9033 60.2145 54.9969 59.6358 56.3885C58.8931 58.1745 58.977 60.0956 59.7113 61.7123" stroke="#1C1F63" stroke-width="1.18947" stroke-miterlimit="1.5" stroke-linecap="round" stroke-linejoin="round"/>
<path d="M72.0962 59.5572C72.4241 56.7154 70.8946 53.9012 68.171 52.7686C66.2277 51.9605 64.106 52.187 62.4019 53.1956" stroke="#1C1F63" stroke-width="1.18947" stroke-miterlimit="1.5" stroke-linecap="round" stroke-linejoin="round"/>
<path d="M63.3288 65.0886C61.6246 66.0972 59.3314 66.3337 56.145 64.7825C54.6403 64.05 53.4391 62.9564 52.7839 61.5338" stroke="#1C1F63" stroke-width="1.18947" stroke-miterlimit="1.5" stroke-linecap="round" stroke-linejoin="round"/>
<path d="M69.1006 37.8168C43.3976 39.4214 58.075 63.9091 27.9148 58.0344" stroke="#FD7033" stroke-width="2.00345" stroke-miterlimit="1.5" stroke-linecap="round" stroke-linejoin="round"/>
</g>
<defs>
<clipPath id="clip0_168_7909">
<rect width="103" height="103" fill="white"/>
</clipPath>
</defs>
</svg>
