<svg width="103" height="103" viewBox="0 0 103 103" fill="none" xmlns="http://www.w3.org/2000/svg">
<path d="M40.484 45.1539C42.0593 36.2399 49.8513 29.46 59.2144 29.46C69.7124 29.46 78.2354 37.9829 78.2354 48.4809C78.2354 58.9789 69.7124 67.5018 59.2144 67.5018C56.867 67.5018 54.6186 67.0758 52.542 66.2967" stroke="#FD7033" stroke-width="0.97722" stroke-miterlimit="1.5" stroke-linecap="round" stroke-linejoin="round"/>
<path d="M54.6953 24.3169H63.731" stroke="#FD7033" stroke-width="1.64646" stroke-miterlimit="1.5" stroke-linecap="round" stroke-linejoin="round"/>
<path d="M73.0571 30.1895L77.5387 34.1725" stroke="#FD7033" stroke-width="1.64646" stroke-miterlimit="1.5" stroke-linecap="round" stroke-linejoin="round"/>
<path d="M59.2146 24.3169V29.46" stroke="#FD7033" stroke-width="0.97722" stroke-miterlimit="1.5" stroke-linecap="round" stroke-linejoin="round"/>
<path d="M59.2025 33.3071L59.21 36.6774" stroke="#FD7033" stroke-width="1.64646" stroke-miterlimit="1.5" stroke-linecap="round" stroke-linejoin="round"/>
<path d="M59.2217 60.2844L59.236 63.6548" stroke="#FD7033" stroke-width="1.64646" stroke-miterlimit="1.5" stroke-linecap="round" stroke-linejoin="round"/>
<path d="M71.4812 48.4773L74.9656 48.4695" stroke="#FD7033" stroke-width="1.64646" stroke-miterlimit="1.5" stroke-linecap="round" stroke-linejoin="round"/>
<path d="M75.2963 32.1812L72.626 34.9992" stroke="#FD7033" stroke-width="0.97722" stroke-miterlimit="1.5" stroke-linecap="round" stroke-linejoin="round"/>
<path d="M70.1757 37.5856L59.8181 48.5162" stroke="#212573" stroke-width="1.64646" stroke-miterlimit="1.5" stroke-linecap="round" stroke-linejoin="round"/>
<path d="M48.9116 37.0239L51.2076 39.5743" stroke="#FD7033" stroke-width="1.64646" stroke-miterlimit="1.5" stroke-linecap="round" stroke-linejoin="round"/>
<path d="M67.2543 57.4001L69.5403 59.9395" stroke="#FD7033" stroke-width="1.64646" stroke-miterlimit="1.5" stroke-linecap="round" stroke-linejoin="round"/>
<path d="M26.0422 69.4339C30.7094 69.481 32.7686 72.2801 33.1682 76.8458" stroke="#212573" stroke-width="0.97722" stroke-miterlimit="1.5" stroke-linecap="round" stroke-linejoin="round"/>
<path d="M41.3791 69.8057C39.0701 65.7495 40.4517 62.561 44.1955 59.9172" stroke="#212573" stroke-width="0.97722" stroke-miterlimit="1.5" stroke-linecap="round" stroke-linejoin="round"/>
<path d="M33.5367 76.5664C32.613 77.3946 31.2892 77.8996 29.9438 77.8996C27.074 77.8996 24.7441 75.6019 24.7441 72.7716C24.7441 71.2143 25.4496 69.8182 26.5622 68.8774" stroke="#212573" stroke-width="0.97722" stroke-miterlimit="1.5" stroke-linecap="round" stroke-linejoin="round"/>
<path d="M44.8567 62.2231C45.031 62.8913 45.2681 63.5136 45.2681 64.2241C45.2681 65.612 44.7084 66.8702 43.8027 67.7852" stroke="#212573" stroke-width="0.97722" stroke-miterlimit="1.5" stroke-linecap="round" stroke-linejoin="round"/>
<path d="M44.8581 62.2229L39.7937 43.3657" stroke="#212573" stroke-width="0.97722" stroke-miterlimit="1.5" stroke-linecap="round" stroke-linejoin="round"/>
<path d="M39.794 43.3657L29.0023 46.1116" stroke="#212573" stroke-width="0.97722" stroke-miterlimit="1.5" stroke-linecap="round" stroke-linejoin="round"/>
<path d="M40.9067 47.505L30.2045 50.2282" stroke="#212573" stroke-width="0.97722" stroke-miterlimit="1.5" stroke-linecap="round" stroke-linejoin="round"/>
<path d="M41.7597 50.6872L31.1097 53.397" stroke="#212573" stroke-width="0.97722" stroke-miterlimit="1.5" stroke-linecap="round" stroke-linejoin="round"/>
<path d="M29.0021 46.1118C29.0021 46.1118 33.6745 61.9019 33.5364 62.9952C33.4095 63.9996 26.5619 68.8776 26.5619 68.8776" stroke="#212573" stroke-width="0.97722" stroke-miterlimit="1.5" stroke-linecap="round" stroke-linejoin="round"/>
<path d="M33.5359 76.5665L43.8037 67.7734" stroke="#212573" stroke-width="0.97722" stroke-miterlimit="1.5" stroke-linecap="round" stroke-linejoin="round"/>
<path d="M39.1719 71.7402C40.1615 72.9987 40.7017 74.7331 40.8866 76.8458" stroke="#212573" stroke-width="0.97722" stroke-miterlimit="1.5" stroke-linecap="round" stroke-linejoin="round"/>
<path d="M49.0962 69.8057C46.7873 65.7495 48.1689 62.561 51.9126 59.9172" stroke="#212573" stroke-width="0.97722" stroke-miterlimit="1.5" stroke-linecap="round" stroke-linejoin="round"/>
<path d="M41.2541 76.5662C40.3304 77.3944 39.0066 77.8995 37.6612 77.8995C36.167 77.8995 34.8192 77.2766 33.8704 76.2799" stroke="#212573" stroke-width="0.97722" stroke-miterlimit="1.5" stroke-linecap="round" stroke-linejoin="round"/>
<path d="M52.5747 62.223C52.749 62.8911 52.986 63.5135 52.986 64.224C52.986 65.6119 52.4264 66.8701 51.5208 67.7851" stroke="#212573" stroke-width="0.97722" stroke-miterlimit="1.5" stroke-linecap="round" stroke-linejoin="round"/>
<path d="M52.5761 62.2228L47.5117 43.3655" stroke="#212573" stroke-width="0.97722" stroke-miterlimit="1.5" stroke-linecap="round" stroke-linejoin="round"/>
<path d="M47.5131 43.3655L40.2887 45.2038" stroke="#212573" stroke-width="0.97722" stroke-miterlimit="1.5" stroke-linecap="round" stroke-linejoin="round"/>
<path d="M48.6243 47.5048L41.3999 49.343" stroke="#212573" stroke-width="0.97722" stroke-miterlimit="1.5" stroke-linecap="round" stroke-linejoin="round"/>
<path d="M49.4793 50.6871L42.2549 52.5253" stroke="#212573" stroke-width="0.97722" stroke-miterlimit="1.5" stroke-linecap="round" stroke-linejoin="round"/>
<path d="M41.2539 76.5663L51.5218 67.7732" stroke="#212573" stroke-width="0.97722" stroke-miterlimit="1.5" stroke-linecap="round" stroke-linejoin="round"/>
<path d="M59.1767 51.1087C60.6083 51.1087 61.769 49.9481 61.769 48.5164C61.769 47.0847 60.6083 45.9241 59.1767 45.9241C57.745 45.9241 56.5844 47.0847 56.5844 48.5164C56.5844 49.9481 57.745 51.1087 59.1767 51.1087Z" fill="#212573"/>
</svg>
