<svg width="40" height="40" viewBox="0 0 40 40" fill="none" xmlns="http://www.w3.org/2000/svg">
<path fill-rule="evenodd" clip-rule="evenodd" d="M16.7827 12.4495C17.2709 11.9613 18.0624 11.9613 18.5505 12.4495L25.2172 19.1162C25.4516 19.3506 25.5833 19.6685 25.5833 20C25.5833 20.3316 25.4516 20.6495 25.2172 20.8839L18.5505 27.5506C18.0624 28.0387 17.2709 28.0387 16.7827 27.5506C16.2946 27.0624 16.2946 26.271 16.7827 25.7828L22.5655 20L16.7827 14.2173C16.2946 13.7291 16.2946 12.9376 16.7827 12.4495Z" fill="#DDDDDD" fill-opacity="0.7"/>
<path fill-rule="evenodd" clip-rule="evenodd" d="M20 6.25C12.176 6.25 5.83337 12.5926 5.83337 20.4167C5.83337 28.2407 12.176 34.5833 20 34.5833C27.8241 34.5833 34.1667 28.2407 34.1667 20.4167C34.1667 12.5926 27.8241 6.25 20 6.25ZM3.33337 20.4167C3.33337 11.2119 10.7953 3.75 20 3.75C29.2048 3.75 36.6667 11.2119 36.6667 20.4167C36.6667 29.6214 29.2048 37.0833 20 37.0833C10.7953 37.0833 3.33337 29.6214 3.33337 20.4167Z" fill="#DDDDDD" fill-opacity="0.7"/>
</svg>
