<svg width="40" height="40" viewBox="0 0 40 40" fill="none" xmlns="http://www.w3.org/2000/svg">
<path fill-rule="evenodd" clip-rule="evenodd" d="M23.2173 27.5505C22.7291 28.0387 21.9376 28.0387 21.4495 27.5505L14.7828 20.8838C14.5484 20.6494 14.4167 20.3315 14.4167 20C14.4167 19.6684 14.5484 19.3505 14.7828 19.1161L21.4495 12.4494C21.9376 11.9613 22.7291 11.9613 23.2173 12.4494C23.7054 12.9376 23.7054 13.729 23.2173 14.2172L17.4345 20L23.2173 25.7827C23.7054 26.2709 23.7054 27.0624 23.2173 27.5505Z" fill="#DDDDDD" fill-opacity="0.7"/>
<path fill-rule="evenodd" clip-rule="evenodd" d="M20 33.75C27.824 33.75 34.1666 27.4074 34.1666 19.5833C34.1666 11.7593 27.824 5.41667 20 5.41667C12.1759 5.41667 5.83329 11.7593 5.83329 19.5833C5.83329 27.4074 12.1759 33.75 20 33.75ZM36.6666 19.5833C36.6666 28.7881 29.2047 36.25 20 36.25C10.7952 36.25 3.33329 28.7881 3.33329 19.5833C3.33329 10.3786 10.7952 2.91667 20 2.91667C29.2047 2.91667 36.6666 10.3786 36.6666 19.5833Z" fill="#DDDDDD" fill-opacity="0.7"/>
</svg>
