<svg width="21" height="20" viewBox="0 0 21 20" fill="none" xmlns="http://www.w3.org/2000/svg">
<path d="M16.3324 16.9599H5.50242C4.92242 16.9599 4.46242 16.4599 4.50242 15.8799L5.34243 5.33992C5.38243 4.81992 5.82243 4.41992 6.34243 4.41992H15.4924C16.0124 4.41992 16.4524 4.81992 16.4924 5.33992L17.3324 15.8799C17.3824 16.4599 16.9224 16.9599 16.3324 16.9599Z" stroke="white" stroke-width="1.5" stroke-miterlimit="10"/>
<path d="M13.4136 4.42C13.3736 3.08 12.2736 2 10.9236 2C9.57359 2 8.47359 3.08 8.43359 4.42H13.4136Z" stroke="white" stroke-width="1.5" stroke-miterlimit="10"/>
<path d="M8.42188 8.27002C8.46187 9.61002 9.56188 10.69 10.9119 10.69C12.2619 10.69 13.3619 9.61002 13.4019 8.27002" stroke="white" stroke-width="1.5" stroke-linecap="square" stroke-linejoin="round"/>
</svg>
