<svg width="24" height="24" viewBox="0 0 24 24" fill="none" xmlns="http://www.w3.org/2000/svg">
<path d="M17.3988 19.1796H6.56883C5.98883 19.1796 5.52883 18.6796 5.56883 18.0996L6.40884 7.55965C6.44884 7.03965 6.88884 6.63965 7.40884 6.63965H16.5588C17.0788 6.63965 17.5188 7.03965 17.5588 7.55965L18.3988 18.0996C18.4488 18.6796 17.9888 19.1796 17.3988 19.1796Z" stroke="#1C1F63" stroke-miterlimit="10"/>
<path d="M14.48 6.63973C14.44 5.29973 13.34 4.21973 11.99 4.21973C10.64 4.21973 9.54 5.29973 9.5 6.63973H14.48Z" stroke="#1C1F63" stroke-miterlimit="10"/>
<path d="M9.48828 10.4897C9.52828 11.8297 10.6283 12.9097 11.9783 12.9097C13.3283 12.9097 14.4283 11.8297 14.4683 10.4897" stroke="#1C1F63" stroke-linecap="round" stroke-linejoin="round"/>
</svg>
