<svg width="41" height="40" viewBox="0 0 41 40" fill="none" xmlns="http://www.w3.org/2000/svg">
<path d="M16.7923 28.3333H23.459V8.33331H3.45898V28.3333H8.45898" stroke="#46487A" stroke-width="1.5" stroke-linecap="round" stroke-linejoin="round"/>
<path d="M33.459 28.3333H36.7923V22.7667C36.793 21.8909 36.6211 21.0236 36.2866 20.2143C35.952 19.405 35.4612 18.6696 34.8423 18.05L31.7923 15H23.459" stroke="#46487A" stroke-width="1.5" stroke-linecap="round" stroke-linejoin="round"/>
<path d="M23.459 28.3333H25.1257" stroke="#46487A" stroke-width="1.5" stroke-linecap="round" stroke-linejoin="round"/>
<path d="M12.6257 33.3333C14.9268 33.3333 16.7923 31.4679 16.7923 29.1667C16.7923 26.8655 14.9268 25 12.6257 25C10.3245 25 8.45898 26.8655 8.45898 29.1667C8.45898 31.4679 10.3245 33.3333 12.6257 33.3333Z" stroke="#46487A" stroke-width="1.5" stroke-linecap="round" stroke-linejoin="round"/>
<path d="M29.2917 33.3333C31.5929 33.3333 33.4583 31.4679 33.4583 29.1667C33.4583 26.8655 31.5929 25 29.2917 25C26.9905 25 25.125 26.8655 25.125 29.1667C25.125 31.4679 26.9905 33.3333 29.2917 33.3333Z" stroke="#46487A" stroke-width="1.5" stroke-linecap="round" stroke-linejoin="round"/>
</svg>
