<svg width="41" height="40" viewBox="0 0 41 40" fill="none" xmlns="http://www.w3.org/2000/svg">
<path d="M18.959 26.6666V24.1666C18.959 21.0233 18.959 19.4533 17.9823 18.4766C17.0057 17.5 15.4357 17.5 12.2923 17.5H11.2923C10.674 17.5 10.364 17.5 10.1023 17.52C9.38251 17.576 8.67662 17.7488 8.01232 18.0316M18.959 26.6666H27.2923M18.959 26.6666H5.79232C5.63732 26.6666 5.55898 26.6666 5.49565 26.6616C5.1 26.6307 4.72835 26.4597 4.44758 26.1792C4.1668 25.8987 3.99532 25.5273 3.96398 25.1316C3.95898 25.065 3.95898 24.9866 3.95898 24.8333C3.95898 24.215 3.95898 23.905 3.97898 23.6433C4.02491 23.0592 4.14763 22.4837 4.34398 21.9316M16.459 26.6666C16.459 27.9927 15.9322 29.2645 14.9945 30.2022C14.0568 31.1399 12.7851 31.6666 11.459 31.6666C10.1329 31.6666 8.86113 31.1399 7.92345 30.2022C6.98577 29.2645 6.45898 27.9927 6.45898 26.6666M20.6257 8.33331H21.5057C23.5107 8.33331 24.5123 8.33331 25.3173 8.83165C26.124 9.32831 26.5723 10.225 27.4673 12.0183L32.2923 21.6666M30.864 18.3333L31.999 17.4966C32.4373 17.1733 32.6573 17.0133 32.809 16.8016C32.9129 16.6586 32.9933 16.5 33.0473 16.3316C33.1257 16.0833 33.1257 15.8116 33.1257 15.2683C33.1257 14.2383 33.1257 13.725 32.9057 13.34C32.758 13.0817 32.5439 12.8677 32.2857 12.72C31.9023 12.5 31.3857 12.5 30.3573 12.5H28.1257" stroke="#46487A" stroke-width="1.5" stroke-linecap="round"/>
<path d="M30.6263 31.3833C31.6955 31.7609 32.8613 31.7637 33.9324 31.3915C35.0035 31.0193 35.9162 30.294 36.5209 29.3347C37.1255 28.3755 37.3861 27.2392 37.26 26.1123C37.1338 24.9854 36.6284 23.9349 35.8265 23.1331C35.0247 22.3312 33.9742 21.8258 32.8473 21.6996C31.7204 21.5735 30.5841 21.8341 29.6249 22.4387C28.6656 23.0434 27.9404 23.9561 27.5681 25.0272C27.1959 26.0983 27.1987 27.2641 27.5763 28.3333" stroke="#46487A" stroke-width="1.5" stroke-linecap="round"/>
</svg>
