<svg width="41" height="40" viewBox="0 0 41 40" fill="none" xmlns="http://www.w3.org/2000/svg">
<path d="M27.8757 15.6666L12.959 7.06665" stroke="#46487A" stroke-width="1.5" stroke-linecap="round" stroke-linejoin="round"/>
<path d="M35.375 26.6666V13.3333C35.3744 12.7488 35.2201 12.1747 34.9276 11.6686C34.635 11.1625 34.2146 10.7423 33.7083 10.45L22.0417 3.78331C21.5349 3.49075 20.9601 3.33673 20.375 3.33673C19.7899 3.33673 19.2151 3.49075 18.7083 3.78331L7.04167 10.45C6.53544 10.7423 6.11497 11.1625 5.82244 11.6686C5.5299 12.1747 5.3756 12.7488 5.375 13.3333V26.6666C5.3756 27.2512 5.5299 27.8253 5.82244 28.3314C6.11497 28.8375 6.53544 29.2577 7.04167 29.55L18.7083 36.2166C19.2151 36.5092 19.7899 36.6632 20.375 36.6632C20.9601 36.6632 21.5349 36.5092 22.0417 36.2166L33.7083 29.55C34.2146 29.2577 34.635 28.8375 34.9276 28.3314C35.2201 27.8253 35.3744 27.2512 35.375 26.6666Z" stroke="#46487A" stroke-width="1.5" stroke-linecap="round" stroke-linejoin="round"/>
<path d="M5.85742 11.6667L20.3741 20L34.8908 11.6667" stroke="#46487A" stroke-width="1.5" stroke-linecap="round" stroke-linejoin="round"/>
<path d="M20.375 36.6667V20" stroke="#46487A" stroke-width="1.5" stroke-linecap="round" stroke-linejoin="round"/>
</svg>
