<svg width="41" height="40" viewBox="0 0 41 40" fill="none" xmlns="http://www.w3.org/2000/svg">
<path d="M4.20898 11.6666L11.559 4.31665C11.8691 4.0047 12.2378 3.75721 12.644 3.58844C13.0502 3.41967 13.4858 3.33297 13.9257 3.33331H27.8257C28.2655 3.33297 28.7011 3.41967 29.1073 3.58844C29.5135 3.75721 29.8822 4.0047 30.1923 4.31665L37.5423 11.6666" stroke="#FD7033" stroke-width="1.5" stroke-linecap="round" stroke-linejoin="round"/>
<path d="M7.54102 20V33.3333C7.54102 34.2174 7.8922 35.0652 8.51733 35.6904C9.14245 36.3155 9.99029 36.6667 10.8743 36.6667H30.8743C31.7584 36.6667 32.6062 36.3155 33.2314 35.6904C33.8565 35.0652 34.2077 34.2174 34.2077 33.3333V20" stroke="#FD7033" stroke-width="1.5" stroke-linecap="round" stroke-linejoin="round"/>
<path d="M25.875 36.6667V30C25.875 29.116 25.5238 28.2681 24.8987 27.643C24.2736 27.0179 23.4257 26.6667 22.5417 26.6667H19.2083C18.3243 26.6667 17.4764 27.0179 16.8513 27.643C16.2262 28.2681 15.875 29.116 15.875 30V36.6667" stroke="#FD7033" stroke-width="1.5" stroke-linecap="round" stroke-linejoin="round"/>
<path d="M4.20898 11.6667H37.5423" stroke="#FD7033" stroke-width="1.5" stroke-linecap="round" stroke-linejoin="round"/>
<path d="M37.5423 11.6667V16.6667C37.5423 17.5507 37.1911 18.3986 36.566 19.0237C35.9409 19.6488 35.093 20 34.209 20C33.2352 19.9464 32.3052 19.5779 31.559 18.95C31.3601 18.8063 31.121 18.729 30.8757 18.729C30.6303 18.729 30.3912 18.8063 30.1923 18.95C29.4461 19.5779 28.5161 19.9464 27.5423 20C26.5685 19.9464 25.6385 19.5779 24.8923 18.95C24.6935 18.8063 24.4543 18.729 24.209 18.729C23.9636 18.729 23.7245 18.8063 23.5257 18.95C22.7794 19.5779 21.8494 19.9464 20.8757 20C19.9019 19.9464 18.9719 19.5779 18.2257 18.95C18.0268 18.8063 17.7877 18.729 17.5423 18.729C17.297 18.729 17.0578 18.8063 16.859 18.95C16.1128 19.5779 15.1828 19.9464 14.209 20C13.2352 19.9464 12.3052 19.5779 11.559 18.95C11.3601 18.8063 11.121 18.729 10.8757 18.729C10.6303 18.729 10.3912 18.8063 10.1923 18.95C9.4461 19.5779 8.51609 19.9464 7.54232 20C6.65826 20 5.81042 19.6488 5.18529 19.0237C4.56017 18.3986 4.20898 17.5507 4.20898 16.6667V11.6667" stroke="#FD7033" stroke-width="1.5" stroke-linecap="round" stroke-linejoin="round"/>
</svg>
