<svg width="41" height="40" viewBox="0 0 41 40" fill="none" xmlns="http://www.w3.org/2000/svg">
<path d="M12.1667 5H7.16667C6.24619 5 5.5 5.74619 5.5 6.66667V11.6667C5.5 12.5871 6.24619 13.3333 7.16667 13.3333H12.1667C13.0871 13.3333 13.8333 12.5871 13.8333 11.6667V6.66667C13.8333 5.74619 13.0871 5 12.1667 5Z" stroke="#46487A" stroke-width="1.5" stroke-linecap="round" stroke-linejoin="round"/>
<path d="M33.8327 5H28.8327C27.9122 5 27.166 5.74619 27.166 6.66667V11.6667C27.166 12.5871 27.9122 13.3333 28.8327 13.3333H33.8327C34.7532 13.3333 35.4993 12.5871 35.4993 11.6667V6.66667C35.4993 5.74619 34.7532 5 33.8327 5Z" stroke="#46487A" stroke-width="1.5" stroke-linecap="round" stroke-linejoin="round"/>
<path d="M12.1667 26.6667H7.16667C6.24619 26.6667 5.5 27.4128 5.5 28.3333V33.3333C5.5 34.2538 6.24619 35 7.16667 35H12.1667C13.0871 35 13.8333 34.2538 13.8333 33.3333V28.3333C13.8333 27.4128 13.0871 26.6667 12.1667 26.6667Z" stroke="#46487A" stroke-width="1.5" stroke-linecap="round" stroke-linejoin="round"/>
<path d="M35.4993 26.6667H30.4993C29.6153 26.6667 28.7674 27.0178 28.1423 27.643C27.5172 28.2681 27.166 29.1159 27.166 30V35" stroke="#46487A" stroke-width="1.5" stroke-linecap="round" stroke-linejoin="round"/>
<path d="M35.5 35V35.0167" stroke="#46487A" stroke-width="1.5" stroke-linecap="round" stroke-linejoin="round"/>
<path d="M20.4993 11.6667V16.6667C20.4993 17.5507 20.1482 18.3986 19.523 19.0237C18.8979 19.6488 18.0501 20 17.166 20H12.166" stroke="#46487A" stroke-width="1.5" stroke-linecap="round" stroke-linejoin="round"/>
<path d="M5.5 20H5.51667" stroke="#46487A" stroke-width="1.5" stroke-linecap="round" stroke-linejoin="round"/>
<path d="M20.5 5H20.5167" stroke="#46487A" stroke-width="1.5" stroke-linecap="round" stroke-linejoin="round"/>
<path d="M20.5 26.6667V26.6833" stroke="#46487A" stroke-width="1.5" stroke-linecap="round" stroke-linejoin="round"/>
<path d="M27.166 20H28.8327" stroke="#46487A" stroke-width="1.5" stroke-linecap="round" stroke-linejoin="round"/>
<path d="M35.5 20V20.0167" stroke="#46487A" stroke-width="1.5" stroke-linecap="round" stroke-linejoin="round"/>
<path d="M20.5 35V33.3333" stroke="#46487A" stroke-width="1.5" stroke-linecap="round" stroke-linejoin="round"/>
</svg>
