<svg width="24" height="24" viewBox="0 0 24 24" fill="none" xmlns="http://www.w3.org/2000/svg">
<path d="M12.0078 13.5666H14.187H14.1713C16.8365 13.5666 19 15.8847 19 18.7402V19.0593C19 19.5801 18.6081 20 18.1221 20H5.87794C5.39193 20 5 19.5801 5 19.0593V18.7402C5 15.8847 7.16347 13.5666 9.82865 13.5666H12.0078ZM12.0078 13.5666C13.9362 13.5666 15.5039 11.6517 15.5039 9.28331C15.5039 6.91489 14.9866 5 12.0078 5C9.02912 5 8.51175 6.91489 8.51175 9.28331C8.51175 11.6517 10.0795 13.5666 12.0078 13.5666Z" stroke="#1C1F63" stroke-linecap="round" stroke-linejoin="round"/>
</svg>
