<svg width="17" height="17" viewBox="0 0 17 17" fill="none" xmlns="http://www.w3.org/2000/svg">
<path d="M16.36 16.18L16.29 16.25C16 16.54 15.53 16.54 15.25 16.25L12.29 13.3C12 13.01 12 12.54 12.29 12.26L12.36 12.19C12.65 11.9 13.12 11.9 13.4 12.19L16.36 15.14C16.65 15.43 16.65 15.9 16.36 16.18Z" fill="#46487A"/>
<path d="M7.67 14.32C11.3537 14.32 14.34 11.3382 14.34 7.66C14.34 3.98178 11.3537 1 7.67 1C3.98626 1 1 3.98178 1 7.66C1 11.3382 3.98626 14.32 7.67 14.32Z" stroke="#46487A" stroke-linecap="round" stroke-linejoin="round"/>
</svg>
