<svg width="15" height="15" viewBox="0 0 15 15" fill="none" xmlns="http://www.w3.org/2000/svg">
<path d="M7.17664 0.495197C7.27842 0.181951 7.72158 0.181952 7.82336 0.495197L9.33203 5.13842C9.37755 5.27851 9.5081 5.37336 9.65539 5.37336L14.5376 5.37336C14.8669 5.37336 15.0039 5.79483 14.7374 5.98842L10.7877 8.85809C10.6685 8.94467 10.6186 9.09814 10.6641 9.23822L12.1728 13.8814C12.2746 14.1947 11.9161 14.4552 11.6496 14.2616L7.69985 11.3919C7.58068 11.3053 7.41932 11.3053 7.30015 11.3919L3.35039 14.2616C3.08393 14.4552 2.7254 14.1947 2.82718 13.8814L4.33586 9.23822C4.38138 9.09814 4.33151 8.94467 4.21235 8.85809L0.262585 5.98842C-0.00387806 5.79483 0.133066 5.37336 0.462432 5.37336L5.34461 5.37336C5.4919 5.37336 5.62245 5.27851 5.66797 5.13842L7.17664 0.495197Z" fill="#FD7033"/>
</svg>
