<svg width="21" height="17" viewBox="0 0 21 17" fill="none" xmlns="http://www.w3.org/2000/svg">
<path d="M2.09052 7.60321C7.325 5.2747 10.8155 3.7396 12.5619 2.99791C17.5485 0.880254 18.5846 0.512394 19.26 0.500118C19.4085 0.497576 19.7406 0.535161 19.9558 0.713395C20.1374 0.863893 20.1874 1.06719 20.2113 1.20988C20.2352 1.35257 20.265 1.67762 20.2413 1.9316C19.9711 4.83051 18.8019 11.8654 18.207 15.1122C17.9553 16.4861 17.4597 16.9467 16.9799 16.9918C15.9372 17.0898 15.1454 16.2882 14.1355 15.6123C12.5551 14.5546 11.6623 13.8962 10.1283 12.864C8.35552 11.6712 9.50475 11.0156 10.5151 9.94423C10.7795 9.66384 15.3737 5.39715 15.4627 5.0101C15.4738 4.96169 15.4841 4.78125 15.3791 4.68597C15.2741 4.59069 15.1192 4.62327 15.0073 4.64919C14.8488 4.68592 12.3242 6.38967 7.43349 9.76045C6.71689 10.2629 6.06781 10.5077 5.48626 10.4948C4.84514 10.4807 3.61189 10.1247 2.6951 9.82044C1.57062 9.44723 0.676901 9.24991 0.754724 8.61609C0.795259 8.28596 1.24053 7.94833 2.09052 7.60321Z" fill="#46487A"/>
</svg>
