<svg width="24" height="15" viewBox="0 0 24 15" fill="none" xmlns="http://www.w3.org/2000/svg">
<path fill-rule="evenodd" clip-rule="evenodd" d="M23.4493 1.40114C23.6163 0.844881 23.4494 0.436035 22.6553 0.436035H20.0297C19.362 0.436035 19.0544 0.78918 18.8875 1.17871C18.8875 1.17871 17.5522 4.43316 15.6607 6.54715C15.0487 7.1591 14.7706 7.35359 14.4367 7.35359C14.2698 7.35359 14.0283 7.15911 14.0283 6.60285V1.40114C14.0283 0.73348 13.8345 0.436035 13.2781 0.436035H9.15214C8.73504 0.436035 8.48411 0.745858 8.48411 1.03955C8.48411 1.67251 9.4297 1.81842 9.52722 3.59859V7.46518C9.52722 8.31287 9.37419 8.46666 9.04036 8.46666C8.15028 8.46666 5.98527 5.1974 4.70097 1.45684C4.44929 0.729729 4.19685 0.436035 3.52582 0.436035H0.90021C0.150035 0.436035 0 0.78918 0 1.17871C0 1.87412 0.89027 5.32343 4.14472 9.88524C6.3146 13.0003 9.37119 14.6894 12.1528 14.6894C13.822 14.6894 14.0283 14.3143 14.0283 13.6682V11.3136C14.0283 10.5634 14.1864 10.4137 14.7147 10.4137C15.1044 10.4137 15.7719 10.6084 17.3298 12.1104C19.11 13.8904 19.4033 14.6894 20.4048 14.6894H23.0304C23.7806 14.6894 24.1556 14.3143 23.9392 13.574C23.7025 12.8362 22.8526 11.7661 21.7247 10.4972C21.1127 9.77384 20.1947 8.99497 19.9168 8.60563C19.5272 8.10489 19.6385 7.88246 19.9168 7.43761C19.9168 7.43761 23.1155 2.93131 23.4493 1.40132V1.40114Z" fill="#46487A"/>
</svg>
