<svg width="22" height="22" viewBox="0 0 22 22" fill="none" xmlns="http://www.w3.org/2000/svg">
<path d="M18.0631 3.90862C16.1333 1.92213 13.4658 0.84375 10.7415 0.84375C4.95227 0.84375 0.298212 5.55456 0.354969 11.287C0.354969 13.1032 0.865779 14.8627 1.71713 16.4519L0.241455 21.8438L5.74686 20.4248C7.27929 21.2762 8.98199 21.6735 10.6847 21.6735C16.4171 21.6735 21.0712 16.9627 21.0712 11.2302C21.0712 8.44916 19.9928 5.83835 18.0631 3.90862ZM10.7415 19.914C9.20902 19.914 7.67659 19.5167 6.37118 18.7221L6.03064 18.5519L2.73875 19.4032L3.5901 16.1681L3.36308 15.8275C0.865779 11.7978 2.05767 6.46267 6.14416 3.96537C10.2306 1.46807 15.509 2.65997 18.0063 6.74645C20.5036 10.8329 19.3117 16.1113 15.2252 18.6086C13.9198 19.46 12.3306 19.914 10.7415 19.914ZM15.736 13.614L15.1117 13.3302C15.1117 13.3302 14.2036 12.9329 13.636 12.6492C13.5793 12.6492 13.5225 12.5924 13.4658 12.5924C13.2955 12.5924 13.182 12.6492 13.0685 12.7059C13.0685 12.7059 13.0117 12.7627 12.2171 13.6708C12.1604 13.7843 12.0469 13.841 11.9333 13.841H11.8766C11.8198 13.841 11.7063 13.7843 11.6496 13.7275L11.3658 13.614C10.7415 13.3302 10.1739 12.9897 9.71983 12.5356C9.60632 12.4221 9.43605 12.3086 9.32254 12.1951C8.92524 11.7978 8.52794 11.3438 8.24416 10.8329L8.1874 10.7194C8.13064 10.6627 8.13064 10.6059 8.07389 10.4924C8.07389 10.3789 8.07389 10.2654 8.13064 10.2086C8.13064 10.2086 8.35767 9.92483 8.52794 9.75456C8.64145 9.64105 8.69821 9.47078 8.81172 9.35726C8.92524 9.18699 8.98199 8.95997 8.92524 8.7897C8.86848 8.50591 8.1874 6.97348 8.01713 6.63294C7.90362 6.46267 7.7901 6.40591 7.61983 6.34916H7.44956C7.33605 6.34916 7.16578 6.34916 6.99551 6.34916C6.88199 6.34916 6.76848 6.40591 6.65497 6.40591L6.59821 6.46267C6.4847 6.51943 6.37118 6.63294 6.25767 6.6897C6.14416 6.80321 6.0874 6.91672 5.97389 7.03024C5.57659 7.54105 5.34956 8.16537 5.34956 8.7897C5.34956 9.24375 5.46308 9.6978 5.63335 10.0951L5.6901 10.2654C6.20091 11.3438 6.882 12.3086 7.7901 13.16L8.01713 13.387C8.1874 13.5573 8.35767 13.6708 8.47118 13.841C9.66308 14.8627 11.0252 15.6005 12.5577 15.9978C12.7279 16.0546 12.955 16.0546 13.1252 16.1113C13.2955 16.1113 13.5225 16.1113 13.6928 16.1113C13.9766 16.1113 14.3171 15.9978 14.5442 15.8843C14.7144 15.7708 14.8279 15.7708 14.9415 15.6573L15.055 15.5437C15.1685 15.4302 15.282 15.3735 15.3955 15.26C15.509 15.1465 15.6225 15.0329 15.6793 14.9194C15.7928 14.6924 15.8496 14.4086 15.9063 14.1248C15.9063 14.0113 15.9063 13.841 15.9063 13.7275C15.9063 13.7275 15.8496 13.6708 15.736 13.614Z" fill="#46487A"/>
</svg>
