<svg width="24" height="24" viewBox="0 0 24 24" fill="none" xmlns="http://www.w3.org/2000/svg">
<path d="M5.8502 5.59002C4.0902 7.91002 4.47021 9.70003 5.79021 11.38C6.43021 12.19 7.72021 13.72 9.22021 15.21C10.7102 16.72 12.2402 18 13.0502 18.64C14.7302 19.96 16.5102 20.34 18.8402 18.58C21.1602 16.82 20.2602 16.56 18.6802 14.85C17.1002 13.14 16.1802 14.11 16.1802 14.11L15.7502 14.54C15.2702 15.02 14.5402 15.14 13.9302 14.84C13.2902 14.53 12.4102 13.98 11.4202 13C10.4502 12.01 9.89021 11.14 9.58021 10.49C9.27021 9.84003 9.4002 9.15002 9.8802 8.67002L10.3102 8.24003C10.3102 8.24003 11.2702 7.32003 9.57021 5.74003C7.87021 4.16003 7.6102 3.26003 5.8402 5.58003L5.8502 5.59002Z" stroke="#B1B1B1" stroke-linecap="round" stroke-linejoin="round"/>
</svg>
