<svg width="121" height="48" viewBox="0 0 121 48" fill="none" xmlns="http://www.w3.org/2000/svg">
<path d="M3.591 44.2612C3.876 44.2582 4.134 44.2057 4.365 44.1037C4.599 44.0017 4.7985 43.8637 4.9635 43.6897C5.1285 43.5157 5.256 43.3132 5.346 43.0822C5.436 42.8512 5.481 42.6037 5.481 42.3397C5.481 42.0787 5.436 41.8327 5.346 41.6017C5.256 41.3707 5.1285 41.1697 4.9635 40.9987C4.7985 40.8247 4.599 40.6867 4.365 40.5847C4.134 40.4827 3.876 40.4287 3.591 40.4227V44.2612ZM2.763 40.4227C2.478 40.4257 2.2185 40.4782 1.9845 40.5802C1.7535 40.6822 1.5555 40.8202 1.3905 40.9942C1.2255 41.1682 1.098 41.3707 1.008 41.6017C0.918 41.8327 0.873 42.0787 0.873 42.3397C0.873 42.6037 0.918 42.8512 1.008 43.0822C1.098 43.3132 1.2255 43.5157 1.3905 43.6897C1.5555 43.8637 1.7535 44.0017 1.9845 44.1037C2.2185 44.2057 2.478 44.2582 2.763 44.2612V40.4227ZM3.591 39.7432C4.002 39.7522 4.377 39.8272 4.716 39.9682C5.055 40.1062 5.3445 40.2937 5.5845 40.5307C5.8275 40.7647 6.015 41.0377 6.147 41.3497C6.282 41.6587 6.3495 41.9887 6.3495 42.3397C6.3495 42.6937 6.282 43.0267 6.147 43.3387C6.015 43.6507 5.8275 43.9252 5.5845 44.1622C5.3445 44.3962 5.055 44.5837 4.716 44.7247C4.377 44.8657 4.002 44.9407 3.591 44.9497V45.7282H2.763V44.9497C2.349 44.9407 1.9725 44.8657 1.6335 44.7247C1.2945 44.5837 1.0035 44.3962 0.7605 44.1622C0.5205 43.9252 0.333 43.6507 0.198 43.3387C0.066 43.0267 0 42.6937 0 42.3397C0 41.9887 0.0675 41.6587 0.2025 41.3497C0.3375 41.0377 0.5265 40.7647 0.7695 40.5307C1.0125 40.2937 1.3035 40.1062 1.6425 39.9682C1.9815 39.8272 2.355 39.7522 2.763 39.7432V38.9872H3.591V39.7432Z" fill="#46487A"/>
<path d="M10.0355 43.6762C9.66649 43.6882 9.35149 43.7182 9.09049 43.7662C8.83249 43.8112 8.62099 43.8712 8.45599 43.9462C8.29399 44.0212 8.17549 44.1097 8.10049 44.2117C8.02849 44.3137 7.99249 44.4277 7.99249 44.5537C7.99249 44.6737 8.01199 44.7772 8.05099 44.8642C8.08999 44.9512 8.14249 45.0232 8.20849 45.0802C8.27749 45.1342 8.35699 45.1747 8.44699 45.2017C8.53999 45.2257 8.63899 45.2377 8.74399 45.2377C8.88499 45.2377 9.01399 45.2242 9.13099 45.1972C9.24799 45.1672 9.35749 45.1252 9.45949 45.0712C9.56449 45.0172 9.66349 44.9527 9.75649 44.8777C9.85249 44.8027 9.94549 44.7172 10.0355 44.6212V43.6762ZM7.44799 41.8132C7.69999 41.5702 7.97149 41.3887 8.26249 41.2687C8.55349 41.1487 8.87599 41.0887 9.22999 41.0887C9.48499 41.0887 9.71149 41.1307 9.90949 41.2147C10.1075 41.2987 10.274 41.4157 10.409 41.5657C10.544 41.7157 10.646 41.8972 10.715 42.1102C10.784 42.3232 10.8185 42.5572 10.8185 42.8122V45.7282H10.463C10.385 45.7282 10.325 45.7162 10.283 45.6922C10.241 45.6652 10.208 45.6142 10.184 45.5392L10.094 45.1072C9.97399 45.2182 9.85699 45.3172 9.74299 45.4042C9.62899 45.4882 9.50899 45.5602 9.38299 45.6202C9.25699 45.6772 9.12199 45.7207 8.97799 45.7507C8.83699 45.7837 8.67949 45.8002 8.50549 45.8002C8.32849 45.8002 8.16199 45.7762 8.00599 45.7282C7.84999 45.6772 7.71349 45.6022 7.59649 45.5032C7.48249 45.4042 7.39099 45.2797 7.32199 45.1297C7.25599 44.9767 7.22299 44.7967 7.22299 44.5897C7.22299 44.4097 7.27249 44.2372 7.37149 44.0722C7.47049 43.9042 7.63099 43.7557 7.85299 43.6267C8.07499 43.4977 8.36449 43.3927 8.72149 43.3117C9.07849 43.2277 9.51649 43.1797 10.0355 43.1677V42.8122C10.0355 42.4582 9.95899 42.1912 9.80599 42.0112C9.65299 41.8282 9.42949 41.7367 9.13549 41.7367C8.93749 41.7367 8.77099 41.7622 8.63599 41.8132C8.50399 41.8612 8.38849 41.9167 8.28949 41.9797C8.19349 42.0397 8.10949 42.0952 8.03749 42.1462C7.96849 42.1942 7.89949 42.2182 7.83049 42.2182C7.77649 42.2182 7.72999 42.2047 7.69099 42.1777C7.65199 42.1477 7.61899 42.1117 7.59199 42.0697L7.44799 41.8132Z" fill="#46487A"/>
<path d="M14.4551 45.1972C14.9051 45.1972 15.2441 45.0547 15.4721 44.7697C15.7031 44.4817 15.8186 44.0797 15.8186 43.5637C15.8186 43.0507 15.7076 42.6502 15.4856 42.3622C15.2666 42.0742 14.9366 41.9302 14.4956 41.9302C14.2826 41.9302 14.0906 41.9647 13.9196 42.0337C13.7486 42.0997 13.6031 42.1972 13.4831 42.3262C13.3661 42.4552 13.2746 42.6142 13.2086 42.8032C13.1456 42.9922 13.1141 43.2082 13.1141 43.4512C13.1141 43.7242 13.1426 43.9687 13.1996 44.1847C13.2566 44.4007 13.3406 44.5837 13.4516 44.7337C13.5656 44.8837 13.7051 44.9992 13.8701 45.0802C14.0381 45.1582 14.2331 45.1972 14.4551 45.1972ZM14.7656 40.0987C14.4596 40.1257 14.1971 40.1932 13.9781 40.3012C13.7621 40.4092 13.5821 40.5562 13.4381 40.7422C13.2941 40.9252 13.1861 41.1457 13.1141 41.4037C13.0421 41.6617 13.0001 41.9527 12.9881 42.2767C13.0601 42.1327 13.1531 42.0037 13.2671 41.8897C13.3811 41.7727 13.5116 41.6737 13.6586 41.5927C13.8056 41.5087 13.9646 41.4457 14.1356 41.4037C14.3096 41.3587 14.4941 41.3362 14.6891 41.3362C14.9921 41.3362 15.2636 41.3902 15.5036 41.4982C15.7466 41.6032 15.9521 41.7532 16.1201 41.9482C16.2911 42.1432 16.4216 42.3787 16.5116 42.6547C16.6016 42.9277 16.6466 43.2307 16.6466 43.5637C16.6466 43.9027 16.5941 44.2102 16.4891 44.4862C16.3871 44.7592 16.2401 44.9932 16.0481 45.1882C15.8561 45.3802 15.6251 45.5287 15.3551 45.6337C15.0881 45.7387 14.7881 45.7912 14.4551 45.7912C14.1491 45.7912 13.8626 45.7402 13.5956 45.6382C13.3286 45.5362 13.0976 45.3682 12.9026 45.1342C12.7076 44.9002 12.5531 44.5927 12.4391 44.2117C12.3281 43.8277 12.2726 43.3552 12.2726 42.7942C12.2726 42.3142 12.3161 41.8732 12.4031 41.4712C12.4901 41.0692 12.6296 40.7197 12.8216 40.4227C13.0166 40.1257 13.2671 39.8872 13.5731 39.7072C13.8821 39.5242 14.2571 39.4132 14.6981 39.3742L16.3271 39.2347L16.3721 39.6487C16.3811 39.7417 16.3676 39.8197 16.3316 39.8827C16.2956 39.9457 16.2311 39.9802 16.1381 39.9862L14.7656 40.0987Z" fill="#46487A"/>
<path d="M18.8288 44.6302C18.9758 44.8282 19.1363 44.9677 19.3103 45.0487C19.4843 45.1297 19.6793 45.1702 19.8953 45.1702C20.3213 45.1702 20.6483 45.0187 20.8763 44.7157C21.1043 44.4127 21.2183 43.9807 21.2183 43.4197C21.2183 43.1227 21.1913 42.8677 21.1373 42.6547C21.0863 42.4417 21.0113 42.2677 20.9123 42.1327C20.8133 41.9947 20.6918 41.8942 20.5478 41.8312C20.4038 41.7682 20.2403 41.7367 20.0573 41.7367C19.7963 41.7367 19.5668 41.7967 19.3688 41.9167C19.1738 42.0367 18.9938 42.2062 18.8288 42.4252V44.6302ZM18.7883 41.8762C18.9803 41.6392 19.2023 41.4487 19.4543 41.3047C19.7063 41.1607 19.9943 41.0887 20.3183 41.0887C20.5823 41.0887 20.8208 41.1397 21.0338 41.2417C21.2468 41.3407 21.4283 41.4892 21.5783 41.6872C21.7283 41.8822 21.8438 42.1252 21.9248 42.4162C22.0058 42.7072 22.0463 43.0417 22.0463 43.4197C22.0463 43.7557 22.0013 44.0692 21.9113 44.3602C21.8213 44.6482 21.6908 44.8987 21.5198 45.1117C21.3518 45.3217 21.1448 45.4882 20.8988 45.6112C20.6558 45.7312 20.3813 45.7912 20.0753 45.7912C19.7963 45.7912 19.5563 45.7447 19.3553 45.6517C19.1573 45.5557 18.9818 45.4237 18.8288 45.2557V47.2717H18.0233V41.1697H18.5048C18.6188 41.1697 18.6893 41.2252 18.7163 41.3362L18.7883 41.8762Z" fill="#46487A"/>
<path d="M27.3299 41.1697V45.7282H26.5289V42.6322C26.5289 42.5722 26.5319 42.5077 26.5379 42.4387C26.5439 42.3697 26.5514 42.3007 26.5604 42.2317C26.5334 42.2917 26.5064 42.3472 26.4794 42.3982C26.4524 42.4492 26.4239 42.4957 26.3939 42.5377L24.1934 45.5302C24.1604 45.5782 24.1184 45.6247 24.0674 45.6697C24.0194 45.7117 23.9654 45.7327 23.9054 45.7327H23.4194V41.1742H24.2249V44.2702C24.2249 44.3272 24.2219 44.3902 24.2159 44.4592C24.2099 44.5252 24.2024 44.5927 24.1934 44.6617C24.2204 44.6047 24.2474 44.5522 24.2744 44.5042C24.3014 44.4532 24.3284 44.4067 24.3554 44.3647L26.5559 41.3722C26.5889 41.3242 26.6309 41.2792 26.6819 41.2372C26.7329 41.1922 26.7884 41.1697 26.8484 41.1697H27.3299Z" fill="#46487A"/>
<path d="M31.7237 41.3947C31.7657 41.3287 31.8212 41.2747 31.8902 41.2327C31.9592 41.1907 32.0327 41.1697 32.1107 41.1697H32.7362L31.5527 42.9067C31.4807 43.0177 31.4057 43.1092 31.3277 43.1812C31.2497 43.2502 31.1537 43.3042 31.0397 43.3432C31.1837 43.3822 31.3052 43.4437 31.4042 43.5277C31.5032 43.6087 31.5917 43.7137 31.6697 43.8427L32.8667 45.7282H32.3087C32.1647 45.7282 32.0537 45.7042 31.9757 45.6562C31.8977 45.6082 31.8302 45.5392 31.7732 45.4492L30.8867 44.0317C30.7457 43.7977 30.5342 43.6807 30.2522 43.6807H29.7617V45.7327H28.9562V41.1697H29.7617V43.1407H30.1937C30.4337 43.1407 30.6212 43.0387 30.7562 42.8347L31.7237 41.3947Z" fill="#46487A"/>
<path d="M36.4449 43.6762C36.0759 43.6882 35.7609 43.7182 35.4999 43.7662C35.2419 43.8112 35.0304 43.8712 34.8654 43.9462C34.7034 44.0212 34.5849 44.1097 34.5099 44.2117C34.4379 44.3137 34.4019 44.4277 34.4019 44.5537C34.4019 44.6737 34.4214 44.7772 34.4604 44.8642C34.4994 44.9512 34.5519 45.0232 34.6179 45.0802C34.6869 45.1342 34.7664 45.1747 34.8564 45.2017C34.9494 45.2257 35.0484 45.2377 35.1534 45.2377C35.2944 45.2377 35.4234 45.2242 35.5404 45.1972C35.6574 45.1672 35.7669 45.1252 35.8689 45.0712C35.9739 45.0172 36.0729 44.9527 36.1659 44.8777C36.2619 44.8027 36.3549 44.7172 36.4449 44.6212V43.6762ZM33.8574 41.8132C34.1094 41.5702 34.3809 41.3887 34.6719 41.2687C34.9629 41.1487 35.2854 41.0887 35.6394 41.0887C35.8944 41.0887 36.1209 41.1307 36.3189 41.2147C36.5169 41.2987 36.6834 41.4157 36.8184 41.5657C36.9534 41.7157 37.0554 41.8972 37.1244 42.1102C37.1934 42.3232 37.2279 42.5572 37.2279 42.8122V45.7282H36.8724C36.7944 45.7282 36.7344 45.7162 36.6924 45.6922C36.6504 45.6652 36.6174 45.6142 36.5934 45.5392L36.5034 45.1072C36.3834 45.2182 36.2664 45.3172 36.1524 45.4042C36.0384 45.4882 35.9184 45.5602 35.7924 45.6202C35.6664 45.6772 35.5314 45.7207 35.3874 45.7507C35.2464 45.7837 35.0889 45.8002 34.9149 45.8002C34.7379 45.8002 34.5714 45.7762 34.4154 45.7282C34.2594 45.6772 34.1229 45.6022 34.0059 45.5032C33.8919 45.4042 33.8004 45.2797 33.7314 45.1297C33.6654 44.9767 33.6324 44.7967 33.6324 44.5897C33.6324 44.4097 33.6819 44.2372 33.7809 44.0722C33.8799 43.9042 34.0404 43.7557 34.2624 43.6267C34.4844 43.4977 34.7739 43.3927 35.1309 43.3117C35.4879 43.2277 35.9259 43.1797 36.4449 43.1677V42.8122C36.4449 42.4582 36.3684 42.1912 36.2154 42.0112C36.0624 41.8282 35.8389 41.7367 35.5449 41.7367C35.3469 41.7367 35.1804 41.7622 35.0454 41.8132C34.9134 41.8612 34.7979 41.9167 34.6989 41.9797C34.6029 42.0397 34.5189 42.0952 34.4469 42.1462C34.3779 42.1942 34.3089 42.2182 34.2399 42.2182C34.1859 42.2182 34.1394 42.2047 34.1004 42.1777C34.0614 42.1477 34.0284 42.1117 34.0014 42.0697L33.8574 41.8132Z" fill="#46487A"/>
<path d="M45.2687 41.1697V45.7282H44.4632V43.5952H42.2762V45.7282H41.4707V41.1697H42.2762V42.9877H44.4632V41.1697H45.2687Z" fill="#46487A"/>
<path d="M48.8235 41.0977C49.1565 41.0977 49.4565 41.1532 49.7235 41.2642C49.9905 41.3752 50.2185 41.5327 50.4075 41.7367C50.5965 41.9407 50.7405 42.1882 50.8395 42.4792C50.9415 42.7672 50.9925 43.0897 50.9925 43.4467C50.9925 43.8067 50.9415 44.1307 50.8395 44.4187C50.7405 44.7067 50.5965 44.9527 50.4075 45.1567C50.2185 45.3607 49.9905 45.5182 49.7235 45.6292C49.4565 45.7372 49.1565 45.7912 48.8235 45.7912C48.4875 45.7912 48.1845 45.7372 47.9145 45.6292C47.6475 45.5182 47.4195 45.3607 47.2305 45.1567C47.0415 44.9527 46.896 44.7067 46.794 44.4187C46.695 44.1307 46.6455 43.8067 46.6455 43.4467C46.6455 43.0897 46.695 42.7672 46.794 42.4792C46.896 42.1882 47.0415 41.9407 47.2305 41.7367C47.4195 41.5327 47.6475 41.3752 47.9145 41.2642C48.1845 41.1532 48.4875 41.0977 48.8235 41.0977ZM48.8235 45.1657C49.2735 45.1657 49.6095 45.0157 49.8315 44.7157C50.0535 44.4127 50.1645 43.9912 50.1645 43.4512C50.1645 42.9082 50.0535 42.4852 49.8315 42.1822C49.6095 41.8792 49.2735 41.7277 48.8235 41.7277C48.5955 41.7277 48.396 41.7667 48.225 41.8447C48.057 41.9227 47.916 42.0352 47.802 42.1822C47.691 42.3292 47.607 42.5107 47.55 42.7267C47.496 42.9397 47.469 43.1812 47.469 43.4512C47.469 43.9912 47.58 44.4127 47.802 44.7157C48.027 45.0157 48.3675 45.1657 48.8235 45.1657Z" fill="#46487A"/>
<path d="M55.541 41.9797C55.517 42.0127 55.493 42.0382 55.469 42.0562C55.445 42.0742 55.412 42.0832 55.37 42.0832C55.325 42.0832 55.2755 42.0652 55.2215 42.0292C55.1675 41.9902 55.1 41.9482 55.019 41.9032C54.941 41.8582 54.8435 41.8177 54.7265 41.7817C54.6125 41.7427 54.4715 41.7232 54.3035 41.7232C54.0785 41.7232 53.8805 41.7637 53.7095 41.8447C53.5385 41.9227 53.3945 42.0367 53.2775 42.1867C53.1635 42.3367 53.0765 42.5182 53.0165 42.7312C52.9595 42.9442 52.931 43.1827 52.931 43.4467C52.931 43.7227 52.9625 43.9687 53.0255 44.1847C53.0885 44.3977 53.177 44.5777 53.291 44.7247C53.408 44.8687 53.5475 44.9797 53.7095 45.0577C53.8745 45.1327 54.059 45.1702 54.263 45.1702C54.458 45.1702 54.6185 45.1477 54.7445 45.1027C54.8705 45.0547 54.974 45.0022 55.055 44.9452C55.139 44.8882 55.208 44.8372 55.262 44.7922C55.319 44.7442 55.3745 44.7202 55.4285 44.7202C55.4945 44.7202 55.5455 44.7457 55.5815 44.7967L55.8065 45.0892C55.7075 45.2122 55.595 45.3172 55.469 45.4042C55.343 45.4912 55.2065 45.5647 55.0595 45.6247C54.9155 45.6817 54.764 45.7237 54.605 45.7507C54.446 45.7777 54.284 45.7912 54.119 45.7912C53.834 45.7912 53.5685 45.7387 53.3225 45.6337C53.0795 45.5287 52.868 45.3772 52.688 45.1792C52.508 44.9782 52.367 44.7322 52.265 44.4412C52.163 44.1502 52.112 43.8187 52.112 43.4467C52.112 43.1077 52.1585 42.7942 52.2515 42.5062C52.3475 42.2182 52.4855 41.9707 52.6655 41.7637C52.8485 41.5537 53.072 41.3902 53.336 41.2732C53.603 41.1562 53.909 41.0977 54.254 41.0977C54.575 41.0977 54.857 41.1502 55.1 41.2552C55.346 41.3572 55.5635 41.5027 55.7525 41.6917L55.541 41.9797Z" fill="#46487A"/>
<path d="M59.7938 41.3947C59.8358 41.3287 59.8913 41.2747 59.9603 41.2327C60.0293 41.1907 60.1028 41.1697 60.1808 41.1697H60.8063L59.6228 42.9067C59.5508 43.0177 59.4758 43.1092 59.3978 43.1812C59.3198 43.2502 59.2238 43.3042 59.1098 43.3432C59.2538 43.3822 59.3753 43.4437 59.4743 43.5277C59.5733 43.6087 59.6618 43.7137 59.7398 43.8427L60.9368 45.7282H60.3788C60.2348 45.7282 60.1238 45.7042 60.0458 45.6562C59.9678 45.6082 59.9003 45.5392 59.8433 45.4492L58.9568 44.0317C58.8158 43.7977 58.6043 43.6807 58.3223 43.6807H57.8318V45.7327H57.0263V41.1697H57.8318V43.1407H58.2638C58.5038 43.1407 58.6913 43.0387 58.8263 42.8347L59.7938 41.3947Z" fill="#46487A"/>
<path d="M63.7902 41.0977C64.1232 41.0977 64.4232 41.1532 64.6902 41.2642C64.9572 41.3752 65.1852 41.5327 65.3742 41.7367C65.5632 41.9407 65.7072 42.1882 65.8062 42.4792C65.9082 42.7672 65.9592 43.0897 65.9592 43.4467C65.9592 43.8067 65.9082 44.1307 65.8062 44.4187C65.7072 44.7067 65.5632 44.9527 65.3742 45.1567C65.1852 45.3607 64.9572 45.5182 64.6902 45.6292C64.4232 45.7372 64.1232 45.7912 63.7902 45.7912C63.4542 45.7912 63.1512 45.7372 62.8812 45.6292C62.6142 45.5182 62.3862 45.3607 62.1972 45.1567C62.0082 44.9527 61.8627 44.7067 61.7607 44.4187C61.6617 44.1307 61.6122 43.8067 61.6122 43.4467C61.6122 43.0897 61.6617 42.7672 61.7607 42.4792C61.8627 42.1882 62.0082 41.9407 62.1972 41.7367C62.3862 41.5327 62.6142 41.3752 62.8812 41.2642C63.1512 41.1532 63.4542 41.0977 63.7902 41.0977ZM63.7902 45.1657C64.2402 45.1657 64.5762 45.0157 64.7982 44.7157C65.0202 44.4127 65.1312 43.9912 65.1312 43.4512C65.1312 42.9082 65.0202 42.4852 64.7982 42.1822C64.5762 41.8792 64.2402 41.7277 63.7902 41.7277C63.5622 41.7277 63.3627 41.7667 63.1917 41.8447C63.0237 41.9227 62.8827 42.0352 62.7687 42.1822C62.6577 42.3292 62.5737 42.5107 62.5167 42.7267C62.4627 42.9397 62.4357 43.1812 62.4357 43.4512C62.4357 43.9912 62.5467 44.4127 62.7687 44.7157C62.9937 45.0157 63.3342 45.1657 63.7902 45.1657Z" fill="#46487A"/>
<path d="M69.0857 45.1657C69.3857 45.1657 69.6227 45.0967 69.7967 44.9587C69.9707 44.8177 70.0577 44.6257 70.0577 44.3827C70.0577 44.2747 70.0412 44.1772 70.0082 44.0902C69.9752 44.0002 69.9212 43.9222 69.8462 43.8562C69.7712 43.7902 69.6707 43.7392 69.5447 43.7032C69.4217 43.6672 69.2702 43.6492 69.0902 43.6492H68.1047V45.1657H69.0857ZM68.1047 41.7097V43.1407H68.9822C69.1142 43.1407 69.2357 43.1227 69.3467 43.0867C69.4607 43.0477 69.5582 42.9952 69.6392 42.9292C69.7202 42.8602 69.7832 42.7792 69.8282 42.6862C69.8732 42.5902 69.8957 42.4852 69.8957 42.3712C69.8957 42.2872 69.8807 42.2062 69.8507 42.1282C69.8207 42.0472 69.7697 41.9767 69.6977 41.9167C69.6257 41.8537 69.5312 41.8042 69.4142 41.7682C69.2972 41.7292 69.1532 41.7097 68.9822 41.7097H68.1047ZM69.0047 41.1697C69.2867 41.1697 69.5282 41.1982 69.7292 41.2552C69.9302 41.3122 70.0952 41.3902 70.2242 41.4892C70.3532 41.5852 70.4477 41.6992 70.5077 41.8312C70.5677 41.9632 70.5977 42.1042 70.5977 42.2542C70.5977 42.3532 70.5842 42.4567 70.5572 42.5647C70.5302 42.6727 70.4822 42.7762 70.4132 42.8752C70.3472 42.9742 70.2557 43.0642 70.1387 43.1452C70.0247 43.2232 69.8807 43.2847 69.7067 43.3297C70.0547 43.3897 70.3232 43.5112 70.5122 43.6942C70.7012 43.8742 70.7957 44.1127 70.7957 44.4097C70.7957 44.6317 70.7507 44.8252 70.6607 44.9902C70.5737 45.1522 70.4522 45.2887 70.2962 45.3997C70.1432 45.5107 69.9632 45.5932 69.7562 45.6472C69.5492 45.7012 69.3272 45.7282 69.0902 45.7282H67.3352V41.1697H69.0047Z" fill="#46487A"/>
<path d="M77.7793 41.7817H75.6283V45.7282H74.8228V41.1697H77.7793V41.7817Z" fill="#46487A"/>
<path d="M78.2734 45.2332C78.2734 45.1552 78.2869 45.0817 78.3139 45.0127C78.3439 44.9437 78.3829 44.8837 78.4309 44.8327C78.4819 44.7817 78.5419 44.7412 78.6109 44.7112C78.6799 44.6812 78.7534 44.6662 78.8314 44.6662C78.9094 44.6662 78.9829 44.6812 79.0519 44.7112C79.1209 44.7412 79.1809 44.7817 79.2319 44.8327C79.2829 44.8837 79.3234 44.9437 79.3534 45.0127C79.3834 45.0817 79.3984 45.1552 79.3984 45.2332C79.3984 45.3142 79.3834 45.3892 79.3534 45.4582C79.3234 45.5242 79.2829 45.5827 79.2319 45.6337C79.1809 45.6847 79.1209 45.7237 79.0519 45.7507C78.9829 45.7807 78.9094 45.7957 78.8314 45.7957C78.7534 45.7957 78.6799 45.7807 78.6109 45.7507C78.5419 45.7237 78.4819 45.6847 78.4309 45.6337C78.3829 45.5827 78.3439 45.5242 78.3139 45.4582C78.2869 45.3892 78.2734 45.3142 78.2734 45.2332Z" fill="#46487A"/>
<path d="M88.9715 39.2797V45.7282H88.0985V41.1472C88.0985 41.0182 88.1015 40.8847 88.1075 40.7467C88.1135 40.6057 88.127 40.4572 88.148 40.3012C88.097 40.4362 88.043 40.5622 87.986 40.6792C87.929 40.7962 87.8705 40.8982 87.8105 40.9852L84.7865 45.4537C84.7445 45.5227 84.6905 45.5857 84.6245 45.6427C84.5585 45.6997 84.482 45.7282 84.395 45.7282H83.747V39.2797H84.62V43.8652C84.62 43.9942 84.617 44.1292 84.611 44.2702C84.605 44.4082 84.5915 44.5567 84.5705 44.7157C84.6215 44.5777 84.6755 44.4502 84.7325 44.3332C84.7925 44.2162 84.851 44.1127 84.908 44.0227L87.932 39.5542C87.974 39.4852 88.028 39.4222 88.094 39.3652C88.16 39.3082 88.2365 39.2797 88.3235 39.2797H88.9715Z" fill="#46487A"/>
<path d="M91.5263 44.6302C91.6733 44.8282 91.8338 44.9677 92.0078 45.0487C92.1818 45.1297 92.3768 45.1702 92.5928 45.1702C93.0188 45.1702 93.3458 45.0187 93.5738 44.7157C93.8018 44.4127 93.9158 43.9807 93.9158 43.4197C93.9158 43.1227 93.8888 42.8677 93.8348 42.6547C93.7838 42.4417 93.7088 42.2677 93.6098 42.1327C93.5108 41.9947 93.3893 41.8942 93.2453 41.8312C93.1013 41.7682 92.9378 41.7367 92.7548 41.7367C92.4938 41.7367 92.2643 41.7967 92.0663 41.9167C91.8713 42.0367 91.6913 42.2062 91.5263 42.4252V44.6302ZM91.4858 41.8762C91.6778 41.6392 91.8998 41.4487 92.1518 41.3047C92.4038 41.1607 92.6918 41.0887 93.0158 41.0887C93.2798 41.0887 93.5183 41.1397 93.7313 41.2417C93.9443 41.3407 94.1258 41.4892 94.2758 41.6872C94.4258 41.8822 94.5413 42.1252 94.6223 42.4162C94.7033 42.7072 94.7438 43.0417 94.7438 43.4197C94.7438 43.7557 94.6988 44.0692 94.6088 44.3602C94.5188 44.6482 94.3883 44.8987 94.2173 45.1117C94.0493 45.3217 93.8423 45.4882 93.5963 45.6112C93.3533 45.7312 93.0788 45.7912 92.7728 45.7912C92.4938 45.7912 92.2538 45.7447 92.0528 45.6517C91.8548 45.5557 91.6793 45.4237 91.5263 45.2557V47.2717H90.7208V41.1697H91.2023C91.3163 41.1697 91.3868 41.2252 91.4138 41.3362L91.4858 41.8762Z" fill="#46487A"/>
<path d="M98.8844 41.3947C98.9264 41.3287 98.9819 41.2747 99.0509 41.2327C99.1199 41.1907 99.1934 41.1697 99.2714 41.1697H99.8969L98.7134 42.9067C98.6414 43.0177 98.5664 43.1092 98.4884 43.1812C98.4104 43.2502 98.3144 43.3042 98.2004 43.3432C98.3444 43.3822 98.4659 43.4437 98.5649 43.5277C98.6639 43.6087 98.7524 43.7137 98.8304 43.8427L100.027 45.7282H99.4694C99.3254 45.7282 99.2144 45.7042 99.1364 45.6562C99.0584 45.6082 98.9909 45.5392 98.9339 45.4492L98.0474 44.0317C97.9064 43.7977 97.6949 43.6807 97.4129 43.6807H96.9224V45.7327H96.1169V41.1697H96.9224V43.1407H97.3544C97.5944 43.1407 97.7819 43.0387 97.9169 42.8347L98.8844 41.3947Z" fill="#46487A"/>
<path d="M105.068 41.1697L102.526 47.0737C102.499 47.1337 102.464 47.1817 102.422 47.2177C102.383 47.2537 102.322 47.2717 102.238 47.2717H101.644L102.476 45.4627L100.595 41.1697H101.288C101.357 41.1697 101.411 41.1877 101.45 41.2237C101.492 41.2567 101.521 41.2942 101.536 41.3362L102.755 44.2072C102.803 44.3332 102.844 44.4652 102.877 44.6032C102.919 44.4622 102.964 44.3287 103.012 44.2027L104.195 41.3362C104.213 41.2882 104.243 41.2492 104.285 41.2192C104.33 41.1862 104.38 41.1697 104.434 41.1697H105.068Z" fill="#46487A"/>
<path d="M109.925 41.7817H108.174V45.7282H107.373V41.7817H105.623V41.1697H109.925V41.7817Z" fill="#46487A"/>
<path d="M114.036 41.9797C114.012 42.0127 113.988 42.0382 113.964 42.0562C113.94 42.0742 113.907 42.0832 113.865 42.0832C113.82 42.0832 113.771 42.0652 113.717 42.0292C113.663 41.9902 113.595 41.9482 113.514 41.9032C113.436 41.8582 113.339 41.8177 113.222 41.7817C113.108 41.7427 112.967 41.7232 112.799 41.7232C112.574 41.7232 112.376 41.7637 112.205 41.8447C112.034 41.9227 111.89 42.0367 111.773 42.1867C111.659 42.3367 111.572 42.5182 111.512 42.7312C111.455 42.9442 111.426 43.1827 111.426 43.4467C111.426 43.7227 111.458 43.9687 111.521 44.1847C111.584 44.3977 111.672 44.5777 111.786 44.7247C111.903 44.8687 112.043 44.9797 112.205 45.0577C112.37 45.1327 112.554 45.1702 112.758 45.1702C112.953 45.1702 113.114 45.1477 113.24 45.1027C113.366 45.0547 113.469 45.0022 113.55 44.9452C113.634 44.8882 113.703 44.8372 113.757 44.7922C113.814 44.7442 113.87 44.7202 113.924 44.7202C113.99 44.7202 114.041 44.7457 114.077 44.7967L114.302 45.0892C114.203 45.2122 114.09 45.3172 113.964 45.4042C113.838 45.4912 113.702 45.5647 113.555 45.6247C113.411 45.6817 113.259 45.7237 113.1 45.7507C112.941 45.7777 112.779 45.7912 112.614 45.7912C112.329 45.7912 112.064 45.7387 111.818 45.6337C111.575 45.5287 111.363 45.3772 111.183 45.1792C111.003 44.9782 110.862 44.7322 110.76 44.4412C110.658 44.1502 110.607 43.8187 110.607 43.4467C110.607 43.1077 110.654 42.7942 110.747 42.5062C110.843 42.2182 110.981 41.9707 111.161 41.7637C111.344 41.5537 111.567 41.3902 111.831 41.2732C112.098 41.1562 112.404 41.0977 112.749 41.0977C113.07 41.0977 113.352 41.1502 113.595 41.2552C113.841 41.3572 114.059 41.5027 114.248 41.6917L114.036 41.9797Z" fill="#46487A"/>
<path d="M118.289 41.3947C118.331 41.3287 118.387 41.2747 118.456 41.2327C118.525 41.1907 118.598 41.1697 118.676 41.1697H119.302L118.118 42.9067C118.046 43.0177 117.971 43.1092 117.893 43.1812C117.815 43.2502 117.719 43.3042 117.605 43.3432C117.749 43.3822 117.871 43.4437 117.97 43.5277C118.069 43.6087 118.157 43.7137 118.235 43.8427L119.432 45.7282H118.874C118.73 45.7282 118.619 45.7042 118.541 45.6562C118.463 45.6082 118.396 45.5392 118.339 45.4492L117.452 44.0317C117.311 43.7977 117.1 43.6807 116.818 43.6807H116.327V45.7327H115.522V41.1697H116.327V43.1407H116.759C116.999 43.1407 117.187 43.0387 117.322 42.8347L118.289 41.3947Z" fill="#46487A"/>
<path d="M17.4028 29.8347C15.7607 30.6831 14.0228 31.1073 12.1891 31.1073C8.98701 31.1073 6.26385 29.9852 4.01964 27.741C1.77543 25.4695 0.65332 22.76 0.65332 19.6126V0.728394H4.84069V9.10313H12.1891V13.2905H4.84069V19.6126C4.84069 21.6379 5.55227 23.3621 6.97543 24.7852C8.42595 26.181 10.1638 26.8789 12.1891 26.8789C14.2417 26.8789 15.9796 26.14 17.4028 24.6621V29.8347Z" fill="#ED7D31"/>
<path d="M40.3934 19.5716H24.9576V15.3842H34.8923C33.3871 13.2768 31.3755 12.2231 28.8576 12.2231C26.8323 12.2231 25.1081 12.9484 23.685 14.3989C22.2618 15.8221 21.5502 17.5463 21.5502 19.5716C21.5502 21.5968 22.2618 23.321 23.685 24.7442C25.1081 26.1673 26.8323 26.8789 28.8576 26.8789C30.8829 26.8789 32.6344 26.1537 34.1123 24.7031V29.8347C32.4702 30.6831 30.7187 31.1073 28.8576 31.1073C25.6829 31.1073 22.9734 29.9852 20.7292 27.741C18.485 25.4968 17.3629 22.7737 17.3629 19.5716C17.3629 16.3968 18.485 13.6873 20.7292 11.4431C22.9734 9.17155 25.6829 8.03576 28.8576 8.03576C32.0323 8.03576 34.7418 9.17155 36.986 11.4431C39.2576 13.6873 40.3934 16.3968 40.3934 19.5716Z" fill="#ED7D31"/>
<path d="M55.9041 12.2231C53.8788 12.2231 52.1409 12.9484 50.6904 14.3989C49.2672 15.8221 48.5557 17.5463 48.5557 19.5716C48.5557 22.7463 47.4335 25.4695 45.1893 27.741C42.9451 29.9852 40.2357 31.1073 37.0609 31.1073V26.8789C39.0862 26.8789 40.8104 26.1673 42.2335 24.7442C43.6567 23.321 44.3683 21.5968 44.3683 19.5716C44.3683 16.3968 45.4904 13.6873 47.7346 11.4431C50.0062 9.17155 52.7293 8.03576 55.9041 8.03576V12.2231Z" fill="#ED7D31"/>
<path d="M78.8754 19.5716C78.8754 22.7463 77.7396 25.4695 75.4681 27.741C73.2238 29.9852 70.5144 31.1073 67.3396 31.1073C64.1649 31.1073 61.4554 29.9852 59.2112 27.741C56.967 25.4695 55.8449 22.7463 55.8449 19.5716C55.8449 16.3968 56.967 13.6873 59.2112 11.4431C61.4554 9.17155 64.1649 8.03576 67.3396 8.03576C70.5144 8.03576 73.2238 9.17155 75.4681 11.4431C77.7396 13.6873 78.8754 16.3968 78.8754 19.5716ZM74.6881 19.5716C74.6881 17.5463 73.9628 15.8221 72.5123 14.3989C71.0891 12.9484 69.3649 12.2231 67.3396 12.2231C65.3144 12.2231 63.5902 12.9484 62.167 14.3989C60.7438 15.8221 60.0323 17.5463 60.0323 19.5716C60.0323 21.5968 60.7438 23.321 62.167 24.7442C63.5902 26.1673 65.3144 26.8789 67.3396 26.8789C69.3649 26.8789 71.0891 26.1673 72.5123 24.7442C73.9628 23.321 74.6881 21.5968 74.6881 19.5716Z" fill="#ED7D31"/>
<path d="M97.4747 14.44C96.0241 12.9621 94.2862 12.2231 92.261 12.2231C90.2357 12.2231 88.4978 12.9484 87.0473 14.3989C85.6241 15.8221 84.9126 17.5463 84.9126 19.5716V30.04H80.7252V19.5716C80.7252 16.3694 81.8473 13.6463 84.0915 11.4021C86.3357 9.15787 89.0589 8.03576 92.261 8.03576C94.1494 8.03576 95.8873 8.45997 97.4747 9.3084V14.44Z" fill="#ED7D31"/>
<path d="M120.511 19.5716C120.511 22.7463 119.375 25.4695 117.104 27.741C114.859 29.9852 112.15 31.1073 108.975 31.1073C105.8 31.1073 103.091 29.9852 100.847 27.741C98.6026 25.4695 97.4804 22.7463 97.4804 19.5716C97.4804 16.3968 98.6026 13.6873 100.847 11.4431C103.091 9.17155 105.8 8.03576 108.975 8.03576C112.15 8.03576 114.859 9.17155 117.104 11.4431C119.375 13.6873 120.511 16.3968 120.511 19.5716ZM116.324 19.5716C116.324 17.5463 115.598 15.8221 114.148 14.3989C112.725 12.9484 111 12.2231 108.975 12.2231C106.95 12.2231 105.226 12.9484 103.803 14.3989C102.379 15.8221 101.668 17.5463 101.668 19.5716C101.668 21.5968 102.379 23.321 103.803 24.7442C105.226 26.1673 106.95 26.8789 108.975 26.8789C111 26.8789 112.725 26.1673 114.148 24.7442C115.598 23.321 116.324 21.5968 116.324 19.5716Z" fill="#ED7D31"/>
</svg>
