<svg width="103" height="103" viewBox="0 0 103 103" fill="none" xmlns="http://www.w3.org/2000/svg">
<g clip-path="url(#clip0_168_8374)">
<path d="M54.0496 57.4976C52.6153 57.5871 51.5033 57.8593 50.6163 58.2534C45.3026 60.6142 48.0652 67.3488 37.9822 65.3848" stroke="#1C1F63" stroke-width="1.62659" stroke-miterlimit="1.5" stroke-linecap="round" stroke-linejoin="round"/>
<path d="M55.2891 35.7911L55.2956 38.7349" stroke="#FD7033" stroke-width="1.62709" stroke-miterlimit="1.5" stroke-linecap="round" stroke-linejoin="round"/>
<path d="M50.531 35.7911L50.5376 38.7349" stroke="#FD7033" stroke-width="1.62709" stroke-miterlimit="1.5" stroke-linecap="round" stroke-linejoin="round"/>
<path d="M45.7729 35.7911L45.7795 38.7349" stroke="#FD7033" stroke-width="1.62709" stroke-miterlimit="1.5" stroke-linecap="round" stroke-linejoin="round"/>
<path d="M61.4405 32.783C59.7832 31.4 57.6509 30.5674 55.3257 30.5674H36.2202C30.9479 30.5674 26.6675 34.8479 26.6675 40.1202V69.1155C26.6675 74.3878 30.9479 78.6683 36.2202 78.6683H55.3257C60.598 78.6683 64.8784 74.3878 64.8784 69.1155V62.0193" stroke="#FD7033" stroke-width="0.965723" stroke-miterlimit="1.5" stroke-linecap="round" stroke-linejoin="round"/>
<path d="M45.8579 70.2463C51.1166 70.2463 55.3796 65.9833 55.3796 60.7246C55.3796 55.4659 51.1166 51.2029 45.8579 51.2029C40.5992 51.2029 36.3362 55.4659 36.3362 60.7246C36.3362 65.9833 40.5992 70.2463 45.8579 70.2463Z" stroke="#1C1F63" stroke-width="1.62709" stroke-miterlimit="1.5" stroke-linecap="round" stroke-linejoin="round"/>
<path d="M26.6677 42.7803H61.4406" stroke="#FD7033" stroke-width="0.965723" stroke-miterlimit="1.5" stroke-linecap="round" stroke-linejoin="round"/>
<path d="M39.6128 30.5676V42.7806" stroke="#FD7033" stroke-width="0.965723" stroke-miterlimit="1.5" stroke-linecap="round" stroke-linejoin="round"/>
<path fill-rule="evenodd" clip-rule="evenodd" d="M71.6789 28.2661C71.6789 27.2362 70.8428 26.4001 69.813 26.4001H66.081C65.0512 26.4001 64.2151 27.2362 64.2151 28.2661V44.4396C64.2151 45.4695 65.0512 46.3056 66.081 46.3056H69.813C70.8428 46.3056 71.6789 45.4695 71.6789 44.4396V28.2661Z" stroke="#1C1F63" stroke-width="1.62709" stroke-miterlimit="1.5" stroke-linecap="round" stroke-linejoin="round"/>
<path d="M64.2151 31.8565H71.6789" stroke="#1C1F63" stroke-width="0.965723" stroke-miterlimit="1.5" stroke-linecap="round" stroke-linejoin="round"/>
<path d="M64.2151 36.6644H71.6789" stroke="#1C1F63" stroke-width="0.965723" stroke-miterlimit="1.5" stroke-linecap="round" stroke-linejoin="round"/>
<path d="M64.2151 41.472H71.6789" stroke="#1C1F63" stroke-width="0.965723" stroke-miterlimit="1.5" stroke-linecap="round" stroke-linejoin="round"/>
<path d="M67.9445 58.3844C69.4773 58.3844 70.7198 57.2238 70.7198 55.7921C70.7198 54.3604 69.4773 53.1998 67.9445 53.1998C66.4117 53.1998 65.1692 54.3604 65.1692 55.7921C65.1692 57.2238 66.4117 58.3844 67.9445 58.3844Z" fill="#1C1F63" stroke="#1C1F63" stroke-width="0.965723" stroke-miterlimit="1.5" stroke-linecap="round" stroke-linejoin="round"/>
<path fill-rule="evenodd" clip-rule="evenodd" d="M61.4414 56.986V26.1644C61.4414 24.6513 62.8986 23.4229 64.6936 23.4229H71.1978C72.9928 23.4229 74.45 24.6513 74.45 26.1644V56.986C74.45 60.1357 71.5355 62.6928 67.9457 62.6928C64.3559 62.6928 61.4414 60.1357 61.4414 56.986Z" stroke="#1C1F63" stroke-width="0.965723" stroke-miterlimit="1.5" stroke-linecap="round" stroke-linejoin="round"/>
</g>
<defs>
<clipPath id="clip0_168_8374">
<rect width="103" height="103" fill="white"/>
</clipPath>
</defs>
</svg>
