<svg width="103" height="103" viewBox="0 0 103 103" fill="none" xmlns="http://www.w3.org/2000/svg">
<path d="M68.1286 56.7875L49.7329 39.6753" stroke="#FD7033" stroke-width="0.97722" stroke-miterlimit="1.5" stroke-linecap="round" stroke-linejoin="round"/>
<path d="M65.0411 71.9691L57.9832 65.4058" stroke="#FD7033" stroke-width="1.64646" stroke-miterlimit="1.5" stroke-linecap="round" stroke-linejoin="round"/>
<path d="M43.5356 74.686L40.2058 71.5886" stroke="#FD7033" stroke-width="0.97722" stroke-miterlimit="1.5" stroke-linecap="round" stroke-linejoin="round"/>
<path d="M30.6738 62.7208L12.2981 45.6273" stroke="#FD7033" stroke-width="0.97722" stroke-miterlimit="1.5" stroke-linecap="round" stroke-linejoin="round"/>
<path d="M89.6456 54.5926L72.9275 39.041" stroke="#FD7033" stroke-width="0.97722" stroke-miterlimit="1.5" stroke-linecap="round" stroke-linejoin="round"/>
<path d="M61.6341 55.9393L51.4932 46.5059" stroke="#FD7033" stroke-width="0.97722" stroke-miterlimit="1.5" stroke-linecap="round" stroke-linejoin="round"/>
<path d="M58.9296 58.2974L53.8591 53.5807" stroke="#FD7033" stroke-width="0.97722" stroke-miterlimit="1.5" stroke-linecap="round" stroke-linejoin="round"/>
<path d="M43.8079 74.3491C62.3513 76.9368 52.4709 59.5835 68.1277 57.3105" stroke="#FD7033" stroke-width="1.64646" stroke-miterlimit="1.5" stroke-linecap="round" stroke-linejoin="round"/>
<path d="M65.041 71.9692C83.5844 74.5569 73.704 57.2036 89.3608 54.9305" stroke="#FD7033" stroke-width="1.64646" stroke-miterlimit="1.5" stroke-linecap="round" stroke-linejoin="round"/>
<path d="M65.7858 72.0644C62.9485 64.5937 75.8116 63.3896 68.1282 57.3105" stroke="#FD7033" stroke-width="1.64646" stroke-miterlimit="1.5" stroke-linecap="round" stroke-linejoin="round"/>
<path fill-rule="evenodd" clip-rule="evenodd" d="M60.4067 37.92L70.9854 27.2197L67.2596 23.5363L77.1525 24.9943L78.7236 34.8698L74.9978 31.1864L64.4191 41.8868L60.4067 37.92Z" stroke="#212573" stroke-width="0.97722" stroke-miterlimit="1.5" stroke-linecap="round" stroke-linejoin="round"/>
<path fill-rule="evenodd" clip-rule="evenodd" d="M41.5353 65.0592L30.9567 75.7596L34.6825 79.443L24.7896 77.985L23.2185 68.1094L26.9443 71.7929L37.5229 61.0925L41.5353 65.0592Z" stroke="#212573" stroke-width="0.97722" stroke-miterlimit="1.5" stroke-linecap="round" stroke-linejoin="round"/>
</svg>
