<svg width="103" height="103" viewBox="0 0 103 103" fill="none" xmlns="http://www.w3.org/2000/svg">
<path d="M59.1255 41.2856C62.2509 42.5853 64.769 45.4313 65.5141 48.5295C65.5744 48.7806 65.6257 49.0344 65.6676 49.2903" stroke="#FD7033" stroke-width="0.977219" stroke-miterlimit="1.5" stroke-linecap="round" stroke-linejoin="round"/>
<path d="M51.6552 69.0419C48.8831 70.8707 45.3171 71.3442 42.0657 69.9921C39.1521 68.7804 37.0602 65.9534 36.192 63.1207" stroke="#FD7033" stroke-width="0.977219" stroke-miterlimit="1.5" stroke-linecap="round" stroke-linejoin="round"/>
<path d="M45.7339 54.6021C45.5854 54.1544 45.4676 53.6953 45.3813 53.2281C45.1928 52.2077 45.155 51.1488 45.2776 50.0861" stroke="#FD7033" stroke-width="1.64646" stroke-miterlimit="1.5" stroke-linecap="round" stroke-linejoin="round"/>
<path d="M45.7316 54.6019C46.5675 57.1931 48.405 59.4122 51.0121 60.6405" stroke="#FD7033" stroke-width="1.64646" stroke-miterlimit="1.5" stroke-linecap="round" stroke-linejoin="round"/>
<path d="M59.1273 41.2856C56.4778 40.3069 53.6508 40.5113 51.2336 41.6498C48.9461 42.7271 47.0256 44.6408 45.9697 47.18C45.6027 48.0626 45.2429 49.9409 45.2179 50.0616C43.8287 59.6059 38.8296 62.1454 36.1927 63.1207C36.1437 63.1343 32.6932 64.5599 29.6029 63.1236" stroke="#FD7033" stroke-width="1.64646" stroke-miterlimit="1.5" stroke-linecap="round" stroke-linejoin="round"/>
<path d="M39.4778 44.7055C40.2336 46.3701 41.3764 48.0646 42.8917 49.0945C43.919 49.7927 44.7303 50.019 45.2762 50.0861" stroke="#FD7033" stroke-width="0.977219" stroke-miterlimit="1.5" stroke-linecap="round" stroke-linejoin="round"/>
<path d="M29.6024 63.1235C24.3545 60.9412 21.9009 54.8239 24.1267 49.4715C25.0404 47.2744 26.6015 45.5455 28.4875 44.4216C27.3009 41.8456 27.1582 38.7761 28.3443 35.9238C30.5702 30.5714 36.6379 27.9978 41.8857 30.1801C42.5522 30.4573 43.1736 30.7979 43.7463 31.1926C41.8479 32.316 40.276 34.051 39.3579 36.2589C38.1795 39.0924 38.3127 42.1404 39.4776 44.7053" stroke="#FD7033" stroke-width="0.977219" stroke-miterlimit="1.5" stroke-linecap="round" stroke-linejoin="round"/>
<path d="M59.1265 41.2854C59.6468 36.7768 57.2202 32.312 52.8991 30.515C49.816 29.2329 46.4499 29.5923 43.7461 31.1924" stroke="#FD7033" stroke-width="0.977219" stroke-miterlimit="1.5" stroke-linecap="round" stroke-linejoin="round"/>
<path d="M45.219 50.0615C42.5153 51.6616 38.8769 52.0369 33.8216 49.5758C31.4345 48.4137 29.5287 46.6785 28.4891 44.4216" stroke="#FD7033" stroke-width="0.977219" stroke-miterlimit="1.5" stroke-linecap="round" stroke-linejoin="round"/>
<path d="M62.7376 69.0133L59.6849 63.4503" stroke="#1C1F63" stroke-width="1.64646" stroke-miterlimit="1.5" stroke-linecap="round" stroke-linejoin="round"/>
<path d="M62.7374 69.0136C63.2444 66.2607 65.0164 60.5724 70.6633 58.5497" stroke="#1C1F63" stroke-width="1.64646" stroke-miterlimit="1.5" stroke-linecap="round" stroke-linejoin="round"/>
<path d="M65.1751 78.2808C73.1829 78.2808 79.6744 71.7892 79.6744 63.7815C79.6744 55.7738 73.1829 49.2823 65.1751 49.2823C57.1674 49.2823 50.6759 55.7738 50.6759 63.7815C50.6759 71.7892 57.1674 78.2808 65.1751 78.2808Z" stroke="#1C1F63" stroke-width="1.64646" stroke-miterlimit="1.5" stroke-linecap="round" stroke-linejoin="round"/>
</svg>
