<svg width="40" height="40" viewBox="0 0 40 40" fill="none" xmlns="http://www.w3.org/2000/svg">
<path d="M16.6673 28.3333H23.334V8.33325H3.33398V28.3333H8.33398" stroke="#FD7033" stroke-width="1.5" stroke-linecap="round" stroke-linejoin="round"/>
<path d="M33.334 28.3333H36.6673V22.7667C36.668 21.8909 36.4961 21.0236 36.1616 20.2143C35.827 19.405 35.3362 18.6696 34.7173 18.05L31.6673 15H23.334" stroke="#FD7033" stroke-width="1.5" stroke-linecap="round" stroke-linejoin="round"/>
<path d="M23.334 28.3333H25.0007" stroke="#FD7033" stroke-width="1.5" stroke-linecap="round" stroke-linejoin="round"/>
<path d="M12.5007 33.3333C14.8018 33.3333 16.6673 31.4679 16.6673 29.1667C16.6673 26.8655 14.8018 25 12.5007 25C10.1995 25 8.33398 26.8655 8.33398 29.1667C8.33398 31.4679 10.1995 33.3333 12.5007 33.3333Z" stroke="#FD7033" stroke-width="1.5" stroke-linecap="round" stroke-linejoin="round"/>
<path d="M29.1667 33.3333C31.4679 33.3333 33.3333 31.4679 33.3333 29.1667C33.3333 26.8655 31.4679 25 29.1667 25C26.8655 25 25 26.8655 25 29.1667C25 31.4679 26.8655 33.3333 29.1667 33.3333Z" stroke="#FD7033" stroke-width="1.5" stroke-linecap="round" stroke-linejoin="round"/>
</svg>
