<svg width="24" height="24" viewBox="0 0 24 24" fill="none" xmlns="http://www.w3.org/2000/svg">
<path d="M19.36 19.18L19.29 19.25C19 19.54 18.53 19.54 18.25 19.25L15.29 16.3C15 16.01 15 15.54 15.29 15.26L15.36 15.19C15.65 14.9 16.12 14.9 16.4 15.19L19.36 18.14C19.65 18.43 19.65 18.9 19.36 19.18Z" fill="white"/>
<path d="M10.67 17.32C14.3537 17.32 17.34 14.3382 17.34 10.66C17.34 6.98178 14.3537 4 10.67 4C6.98626 4 4 6.98178 4 10.66C4 14.3382 6.98626 17.32 10.67 17.32Z" stroke="white" stroke-linecap="round" stroke-linejoin="round"/>
</svg>
