<svg width="25" height="24" viewBox="0 0 25 24" fill="none" xmlns="http://www.w3.org/2000/svg">
<path d="M19.86 19.18L19.79 19.25C19.5 19.54 19.03 19.54 18.75 19.25L15.79 16.3C15.5 16.01 15.5 15.54 15.79 15.26L15.86 15.19C16.15 14.9 16.62 14.9 16.9 15.19L19.86 18.14C20.15 18.43 20.15 18.9 19.86 19.18Z" fill="#46487A"/>
<path d="M11.17 17.32C14.8537 17.32 17.84 14.3382 17.84 10.66C17.84 6.98178 14.8537 4 11.17 4C7.48626 4 4.5 6.98178 4.5 10.66C4.5 14.3382 7.48626 17.32 11.17 17.32Z" stroke="#46487A" stroke-linecap="round" stroke-linejoin="round"/>
</svg>
