<svg width="37" height="37" viewBox="0 0 37 37" fill="none" xmlns="http://www.w3.org/2000/svg">
<g clip-path="url(#clip0_168_7675)">
<path d="M2.42806 25.398C1.55957 23.4086 1.10416 21.3457 1.0183 19.2998L11.9062 7.0214L17.4262 2.13675L2.42806 25.398ZM16.1754 1.25352C12.8374 4.78471 7.39575 10.1684 1.15763 16.2692C2.15902 8.85124 7.91064 2.30152 16.1754 1.25352ZM17.2363 35.8535C17.6372 24.6492 21.0302 13.1195 26.107 2.88607C32.9477 6.2801 37.0757 14.0373 35.5455 21.8331C29.3731 26.1582 23.5623 33.0054 21.4544 35.632C20.0747 35.8658 18.6722 35.9613 17.2363 35.8535ZM37.0002 18.5C37.0002 4.31151 21.5348 -4.60448 9.22934 2.48977C-3.07612 9.58401 -3.07612 27.416 9.22934 34.5102C21.5348 41.6045 37.0002 32.6885 37.0002 18.5Z" fill="#FD7033"/>
</g>
<defs>
<clipPath id="clip0_168_7675">
<rect width="37" height="37" fill="white"/>
</clipPath>
</defs>
</svg>
