<svg width="37" height="37" viewBox="0 0 37 37" fill="none" xmlns="http://www.w3.org/2000/svg">
<path d="M24.6666 3.08337C25.2765 3.08337 25.8726 3.26421 26.3797 3.60301C26.8867 3.94181 27.2819 4.42336 27.5153 4.98677C27.7486 5.55017 27.8097 6.17013 27.6907 6.76824C27.5718 7.36634 27.2781 7.91574 26.8469 8.34695C26.4157 8.77817 25.8663 9.07183 25.2682 9.1908C24.6701 9.30977 24.0501 9.24871 23.4867 9.01534C22.9233 8.78197 22.4417 8.38677 22.1029 7.87972C21.7641 7.37266 21.5833 6.77653 21.5833 6.16671C21.5833 5.34896 21.9082 4.5647 22.4864 3.98646C23.0646 3.40822 23.8489 3.08337 24.6666 3.08337ZM18.5616 4.62504C19.019 4.62504 19.4661 4.76067 19.8464 5.01477C20.2267 5.26887 20.5231 5.63003 20.6981 6.05259C20.8731 6.47514 20.9189 6.94011 20.8297 7.38869C20.7405 7.83727 20.5202 8.24932 20.1968 8.57273C19.8734 8.89613 19.4614 9.11638 19.0128 9.20561C18.5642 9.29484 18.0992 9.24904 17.6767 9.07401C17.2541 8.89898 16.893 8.60259 16.6389 8.2223C16.3848 7.84201 16.2491 7.39491 16.2491 6.93754C16.2491 6.32423 16.4928 5.73603 16.9265 5.30236C17.3601 4.86868 17.9483 4.62504 18.5616 4.62504ZM14.0137 6.93754C14.3186 6.93754 14.6167 7.02796 14.8702 7.19736C15.1238 7.36676 15.3214 7.60753 15.438 7.88924C15.5547 8.17094 15.5853 8.48092 15.5258 8.77997C15.4663 9.07903 15.3195 9.35372 15.1039 9.56933C14.8882 9.78494 14.6135 9.93177 14.3145 9.99125C14.0154 10.0507 13.7055 10.0202 13.4238 9.90352C13.1421 9.78684 12.9013 9.58924 12.7319 9.33571C12.5625 9.08219 12.4721 8.78412 12.4721 8.47921C12.4721 8.07033 12.6345 7.6782 12.9236 7.38908C13.2127 7.09997 13.6049 6.93754 14.0137 6.93754ZM10.8533 9.25004C11.1582 9.25004 11.4563 9.34046 11.7098 9.50986C11.9633 9.67926 12.1609 9.92003 12.2776 10.2017C12.3943 10.4834 12.4248 10.7934 12.3654 11.0925C12.3059 11.3915 12.159 11.6662 11.9434 11.8818C11.7278 12.0974 11.4531 12.2443 11.1541 12.3038C10.855 12.3632 10.545 12.3327 10.2633 12.216C9.98164 12.0993 9.74086 11.9017 9.57146 11.6482C9.40206 11.3947 9.31165 11.0966 9.31165 10.7917C9.31165 10.3828 9.47407 9.9907 9.76319 9.70158C10.0523 9.41247 10.4444 9.25004 10.8533 9.25004ZM22.4004 18.5C22.9382 18.4965 23.4693 18.3805 23.9596 18.1593C24.4498 17.9382 24.8884 17.617 25.2471 17.2162C25.6057 16.8154 25.8765 16.344 26.0421 15.8323C26.2076 15.3206 26.2643 14.7799 26.2083 14.245C26.0732 13.2781 25.5899 12.3938 24.849 11.758C24.1082 11.1221 23.1608 10.7786 22.1846 10.7917H18.3612C16.3359 10.7893 14.3658 11.4516 12.7533 12.677C11.1408 13.9023 9.97505 15.6231 9.43498 17.575C9.22876 18.2913 9.28901 19.0581 9.60456 19.7334C10.2936 21.156 10.652 22.716 10.6529 24.2967C10.6046 25.7893 10.2421 27.2549 9.58915 28.598C9.39163 29.0272 9.29976 29.4976 9.32122 29.9696C9.34268 30.4417 9.47684 30.9017 9.71248 31.3113C10.3307 32.2958 11.2409 33.0628 12.316 33.505C13.3912 33.9472 14.5776 34.0426 15.7096 33.778C16.5491 33.5838 17.3299 33.1915 17.9867 32.6337C18.6434 32.0759 19.1571 31.369 19.4846 30.572C19.8122 29.775 19.9441 28.9112 19.8693 28.0528C19.7946 27.1944 19.5154 26.3663 19.055 25.638C18.5721 24.891 18.33 24.0139 18.3612 23.125C18.3612 23.125 18.0066 18.5 22.4004 18.5Z" fill="#FD7033"/>
</svg>
