<svg width="40" height="40" viewBox="0 0 40 40" fill="none" xmlns="http://www.w3.org/2000/svg">
<path d="M33.333 10H6.66634C4.82539 10 3.33301 11.4924 3.33301 13.3333V26.6667C3.33301 28.5076 4.82539 30 6.66634 30H33.333C35.174 30 36.6663 28.5076 36.6663 26.6667V13.3333C36.6663 11.4924 35.174 10 33.333 10Z" stroke="#FD7033" stroke-width="1.5" stroke-linecap="round" stroke-linejoin="round"/>
<path d="M19.9993 23.3333C21.8403 23.3333 23.3327 21.8409 23.3327 20C23.3327 18.159 21.8403 16.6666 19.9993 16.6666C18.1584 16.6666 16.666 18.159 16.666 20C16.666 21.8409 18.1584 23.3333 19.9993 23.3333Z" stroke="#FD7033" stroke-width="1.5" stroke-linecap="round" stroke-linejoin="round"/>
<path d="M10 20H10.0167M30 20H30.0167" stroke="#FD7033" stroke-width="1.5" stroke-linecap="round" stroke-linejoin="round"/>
</svg>
