<svg width="40" height="40" viewBox="0 0 40 40" fill="none" xmlns="http://www.w3.org/2000/svg">
<path d="M18.334 26.6666V24.1666C18.334 21.0233 18.334 19.4533 17.3573 18.4766C16.3807 17.4999 14.8107 17.4999 11.6673 17.4999H10.6673C10.049 17.4999 9.73898 17.4999 9.47732 17.5199C8.75751 17.576 8.05162 17.7488 7.38732 18.0316M18.334 26.6666H26.6673M18.334 26.6666H5.16732C5.01232 26.6666 4.93398 26.6666 4.87065 26.6616C4.475 26.6307 4.10335 26.4596 3.82258 26.1791C3.5418 25.8987 3.37032 25.5272 3.33898 25.1316C3.33398 25.0649 3.33398 24.9866 3.33398 24.8333C3.33398 24.2149 3.33398 23.9049 3.35398 23.6433C3.39991 23.0591 3.52263 22.4836 3.71898 21.9316M15.834 26.6666C15.834 27.9927 15.3072 29.2644 14.3695 30.2021C13.4318 31.1398 12.1601 31.6666 10.834 31.6666C9.5079 31.6666 8.23613 31.1398 7.29845 30.2021C6.36077 29.2644 5.83398 27.9927 5.83398 26.6666M20.0007 8.33325H20.8807C22.8857 8.33325 23.8873 8.33325 24.6923 8.83158C25.499 9.32825 25.9473 10.2249 26.8423 12.0183L31.6673 21.6666M30.239 18.3333L31.374 17.4966C31.8123 17.1733 32.0323 17.0133 32.184 16.8016C32.2879 16.6585 32.3683 16.4999 32.4223 16.3316C32.5007 16.0833 32.5007 15.8116 32.5007 15.2683C32.5007 14.2383 32.5007 13.7249 32.2807 13.3399C32.133 13.0817 31.9189 12.8676 31.6607 12.7199C31.2773 12.4999 30.7607 12.4999 29.7323 12.4999H27.5007" stroke="#FD7033" stroke-width="1.5" stroke-linecap="round"/>
<path d="M30.0013 31.3832C31.0705 31.7607 32.2363 31.7636 33.3074 31.3914C34.3785 31.0191 35.2912 30.2939 35.8959 29.3346C36.5005 28.3753 36.7611 27.239 36.635 26.1122C36.5088 24.9853 36.0034 23.9347 35.2015 23.1329C34.3997 22.3311 33.3492 21.8257 32.2223 21.6995C31.0954 21.5733 29.9591 21.834 28.9999 22.4386C28.0406 23.0432 27.3154 23.956 26.9431 25.0271C26.5709 26.0982 26.5737 27.264 26.9513 28.3332" stroke="#FD7033" stroke-width="1.5" stroke-linecap="round"/>
</svg>
