<svg width="18" height="14" viewBox="0 0 18 14" fill="none" xmlns="http://www.w3.org/2000/svg">
<path d="M14.104 5.23723L13.8862 5.62956C13.8065 5.77498 13.6365 5.83533 13.4851 5.77772C13.1716 5.657 12.8847 5.48415 12.6323 5.26741C12.5101 5.16315 12.4783 4.97933 12.558 4.83666L12.7758 4.44432C12.5925 4.22483 12.449 3.96967 12.3534 3.69257H11.9151C11.7557 3.69257 11.6176 3.57459 11.591 3.40998C11.5379 3.08074 11.5352 2.73505 11.591 2.39209C11.6176 2.22748 11.7557 2.10676 11.9151 2.10676H12.3534C12.449 1.82965 12.5925 1.5745 12.7758 1.35501L12.558 0.96267C12.4783 0.820002 12.5075 0.63618 12.6323 0.531922C12.8847 0.315176 13.1743 0.142328 13.4851 0.0216092C13.6365 -0.0360068 13.8065 0.0243528 13.8862 0.169765L14.104 0.562102C14.383 0.509973 14.6672 0.509973 14.9461 0.562102L15.164 0.169765C15.2437 0.0243528 15.4137 -0.0360068 15.5651 0.0216092C15.8785 0.142328 16.1654 0.315176 16.4178 0.531922C16.54 0.63618 16.5719 0.820002 16.4922 0.96267L16.2744 1.35501C16.4577 1.5745 16.6011 1.82965 16.6967 2.10676H17.1351C17.2944 2.10676 17.4326 2.22473 17.4592 2.38935C17.5123 2.71859 17.5149 3.06428 17.4592 3.40723C17.4326 3.57185 17.2944 3.69257 17.1351 3.69257H16.6967C16.6011 3.96967 16.4577 4.22483 16.2744 4.44432L16.4922 4.83666C16.5719 4.97933 16.5427 5.16315 16.4178 5.26741C16.1654 5.48415 15.8759 5.657 15.5651 5.77772C15.4137 5.83533 15.2437 5.77498 15.164 5.62956L14.9461 5.23723C14.6699 5.28935 14.383 5.28935 14.104 5.23723ZM13.8251 3.62398C14.8478 4.43609 16.014 3.23164 15.2277 2.17535C14.205 1.36049 13.0388 2.56769 13.8251 3.62398ZM10.7622 7.84641L11.6574 8.30733C11.9257 8.46646 12.0426 8.80393 11.9363 9.10573C11.6999 9.76968 11.235 10.3788 10.8047 10.911C10.6081 11.1552 10.2681 11.2156 9.99978 11.0564L9.22675 10.5955C8.80172 10.9714 8.30761 11.2704 7.76835 11.4652V12.3871C7.76835 12.7054 7.54786 12.9797 7.24502 13.0346C6.59153 13.1498 5.90616 13.1553 5.22876 13.0346C4.92327 12.9797 4.69747 12.7081 4.69747 12.3871V11.4652C4.15821 11.2677 3.6641 10.9714 3.23907 10.5955L2.46604 11.0537C2.20039 11.2128 1.85771 11.1525 1.66113 10.9083C1.23078 10.376 0.776522 9.76694 0.540096 9.10573C0.433838 8.80667 0.550722 8.46921 0.819026 8.30733L1.70363 7.84641C1.60003 7.27299 1.60003 6.68311 1.70363 6.10695L0.819026 5.64328C0.550722 5.48415 0.431181 5.14669 0.540096 4.84763C0.776522 4.18368 1.23078 3.57459 1.66113 3.04233C1.85771 2.79815 2.19773 2.73779 2.46604 2.89692L3.23907 3.35785C3.6641 2.98197 4.15821 2.68292 4.69747 2.48812V1.56352C4.69747 1.24801 4.9153 0.973644 5.21814 0.918772C5.87163 0.80354 6.55966 0.798053 7.23706 0.916029C7.54255 0.970901 7.76835 1.24252 7.76835 1.56352V2.48538C8.30761 2.68292 8.80172 2.97923 9.22675 3.3551L9.99978 2.89418C10.2654 2.73505 10.6081 2.79541 10.8047 3.03959C11.235 3.57185 11.6866 4.18093 11.9231 4.84489C12.0293 5.14394 11.9257 5.48141 11.6574 5.64328L10.7622 6.10421C10.8658 6.68037 10.8658 7.27025 10.7622 7.84641ZM7.63818 8.42531C9.21081 6.31272 6.87578 3.90108 4.83029 5.52531C3.25766 7.63789 5.5927 10.0495 7.63818 8.42531ZM14.104 13.4379L13.8862 13.8302C13.8065 13.9756 13.6365 14.036 13.4851 13.9784C13.1716 13.8577 12.8847 13.6848 12.6323 13.4681C12.5101 13.3638 12.4783 13.18 12.558 13.0373L12.7758 12.645C12.5925 12.4255 12.449 12.1703 12.3534 11.8932H11.9151C11.7557 11.8932 11.6176 11.7753 11.591 11.6106C11.5379 11.2814 11.5352 10.9357 11.591 10.5928C11.6176 10.4282 11.7557 10.3074 11.9151 10.3074H12.3534C12.449 10.0303 12.5925 9.77517 12.7758 9.55568L12.558 9.16334C12.4783 9.02067 12.5075 8.83685 12.6323 8.73259C12.8847 8.51585 13.1743 8.343 13.4851 8.22228C13.6365 8.16467 13.8065 8.22503 13.8862 8.37044L14.104 8.76277C14.383 8.71065 14.6672 8.71065 14.9461 8.76277L15.164 8.37044C15.2437 8.22503 15.4137 8.16467 15.5651 8.22228C15.8785 8.343 16.1654 8.51585 16.4178 8.73259C16.54 8.83685 16.5719 9.02067 16.4922 9.16334L16.2744 9.55568C16.4577 9.77517 16.6011 10.0303 16.6967 10.3074H17.1351C17.2944 10.3074 17.4326 10.4254 17.4592 10.59C17.5123 10.9193 17.5149 11.265 17.4592 11.6079C17.4326 11.7725 17.2944 11.8932 17.1351 11.8932H16.6967C16.6011 12.1703 16.4577 12.4255 16.2744 12.645L16.4922 13.0373C16.5719 13.18 16.5427 13.3638 16.4178 13.4681C16.1654 13.6848 15.8759 13.8577 15.5651 13.9784C15.4137 14.036 15.2437 13.9756 15.164 13.8302L14.9461 13.4379C14.6699 13.49 14.383 13.49 14.104 13.4379ZM13.8251 11.8219C14.8478 12.634 16.014 11.4296 15.2277 10.3733C14.205 9.56117 13.0388 10.7656 13.8251 11.8219Z" fill="#46487A" fill-opacity="0.5"/>
</svg>
