<svg width="37" height="37" viewBox="0 0 37 37" fill="none" xmlns="http://www.w3.org/2000/svg">
<path d="M10.5874 8.3185C11.2789 8.70129 11.929 9.25094 12.4689 9.86346C13.2518 10.7516 14.535 13.1283 13.6604 13.9256C13.3188 12.9211 12.1354 11.4522 11.4931 10.7234C10.8507 9.99463 9.93371 9.3576 7.68191 8.65843C5.43011 7.95934 2.68489 10.0967 2.15215 12.3805C1.94156 13.2834 2.189 14.4655 2.76532 15.7283C3.34164 16.991 4.22566 18.3165 5.14893 19.509C5.37112 19.7958 5.59782 20.079 5.82895 20.3586C7.20077 20.6676 8.53479 21.4735 9.86202 22.283C11.3769 23.2071 12.8914 24.1572 14.2801 24.5916C14.6765 21.9646 16.2421 19.5836 18.7233 17.5116L19.5302 16.8377L19.773 17.8607C20.2962 20.0653 20.5933 22.5676 19.6725 25.0788C22.5785 24.8498 26.1899 24.8454 29.19 25.8535C30.2776 24.8915 31.0176 23.9756 30.4373 22.6912C26.7221 23.6169 23.4553 21.1221 22.4683 19.5773C25.0594 21.1792 26.7225 22.111 29.4367 21.5637C31.56 21.0261 33.5323 20.883 34.2019 18.7175C35.3958 14.8201 35.2448 9.63503 32.683 6.70307C31.4084 5.24432 29.7979 4.11437 28.1447 3.73895C26.4914 3.36346 24.792 3.67485 23.3331 4.90207C21.8742 6.12928 21.1683 7.31444 20.9015 8.37378C20.6346 9.43319 21.4958 11.6385 21.6272 12.1948C20.2511 11.0642 19.2805 9.48392 19.6402 8.0561C19.9631 6.77396 20.7865 5.556 21.8739 4.60556C21.3694 3.56277 20.4349 2.92307 19.3654 2.54939C14.9134 1.33764 9.64783 2.97424 10.5874 8.3185ZM18.7335 19.2474C16.7191 21.1644 15.618 23.2249 15.4828 25.4434L15.438 26.1778L14.7147 26.0434C12.7596 25.6799 10.9252 24.4553 9.18467 23.3936C8.00819 22.676 6.88359 22.0562 5.88091 21.7447C6.65379 22.8862 7.51772 24.1515 8.63423 25.2893C10.1655 26.8499 12.0064 28.0062 14.4038 27.8768L15.4382 27.8209C14.4517 30.0937 13.7808 32.6029 13.7889 34.6155L14.9021 34.8294C15.3942 32.2199 15.8708 30.3412 17.063 28.5488C20.8401 29.0845 24.8142 28.2153 27.7198 26.7986C24.8366 26.1065 21.3421 26.2024 18.7061 26.4705L17.5201 26.5909L18.0606 25.5284C19.1302 23.4261 19.1102 21.3037 18.7334 19.2474H18.7335Z" fill="#FD7033"/>
</svg>
